<svg xmlns="http://www.w3.org/2000/svg" width="16.96" height="11.262" viewBox="0 0 16.96 11.262"><path d="M13.784,1.828a.609.609,0,1,0,.609.609A.609.609,0,0,0,13.784,1.828ZM14.049.017a2.435,2.435,0,1,0,2.17,2.42,2.435,2.435,0,0,0-2.17-2.42Zm-.265,3.637a1.218,1.218,0,1,1,.861-.357A1.218,1.218,0,0,1,13.784,3.654ZM11.078,1.046a9.223,9.223,0,0,0-1.47,1.391,9.223,9.223,0,0,0,1.47,1.391,3.031,3.031,0,0,1,0-2.782ZM9.693,6.783A41.294,41.294,0,0,0,5.815,4.564a.25.25,0,0,0-.25.247V9.194a.244.244,0,0,0,.353.216L9.675,7.231a.247.247,0,0,0,.018-.447Zm0,0A41.294,41.294,0,0,0,5.815,4.564a.25.25,0,0,0-.25.247V9.194a.244.244,0,0,0,.353.216L9.675,7.231a.247.247,0,0,0,.018-.447ZM9.069,2.741H1.913A.916.916,0,0,0,1,3.654v6.7a.916.916,0,0,0,.913.913H13.175a.916.916,0,0,0,.913-.913V5.465C12.2,5.637,10.258,4.216,9.069,2.741Zm.895,5.022L6.208,9.946a.852.852,0,0,1-1.251-.752V4.811A.852.852,0,0,1,6.193,4.05l3.79,2.2a.85.85,0,0,1-.018,1.513Zm-.271-.98A41.294,41.294,0,0,0,5.815,4.564a.25.25,0,0,0-.25.247V9.194a.244.244,0,0,0,.353.216L9.675,7.231a.247.247,0,0,0,.018-.447Zm4.091-4.955a.609.609,0,1,0,.609.609A.609.609,0,0,0,13.784,1.828ZM14.049.017a2.435,2.435,0,1,0,2.17,2.42,2.435,2.435,0,0,0-2.17-2.42Zm-.265,3.637a1.218,1.218,0,1,1,.861-.357A1.218,1.218,0,0,1,13.784,3.654ZM16.49,1.046a3.031,3.031,0,0,1,0,2.782,9.223,9.223,0,0,0,1.47-1.391,9.223,9.223,0,0,0-1.47-1.391Zm-2.706.782a.609.609,0,1,0,.609.609A.609.609,0,0,0,13.784,1.828ZM14.049.017a2.435,2.435,0,1,0,2.17,2.42,2.435,2.435,0,0,0-2.17-2.42Zm-.265,3.637a1.218,1.218,0,1,1,.861-.357A1.218,1.218,0,0,1,13.784,3.654Z" transform="translate(-1 -0.002)" fill="#522969"/></svg>