<svg xmlns="http://www.w3.org/2000/svg" width="62" height="62" viewBox="0 0 62 62"><g transform="translate(-1 -1)"><path d="M63,21H57.78L54.273,6.972A2,2,0,0,0,56,5V3a2,2,0,0,0-2-2H42a2,2,0,0,0-2,2V5a2,2,0,0,0,1.727,1.972L38.22,21H30V14.277L28,15.42V1H18V21.134l-2,1.143V14.091l-2,1.385V1H4V22.4L1,24.476V53H16.831l-.9,1.806,5.259,5.258L23.7,58.82a16.868,16.868,0,0,0,3.685,1.527L28.281,63h7.438l.894-2.653A16.888,16.888,0,0,0,40.3,58.82l2.509,1.244,5.259-5.258L47.169,53H63ZM52.22,7l.5,2H43.28l.5-2Zm-9.44,4H53.22l.5,2H42.28Zm11.44,4,.5,2H41.28l.5-2ZM42,3H54V5H42ZM40.78,19H55.22l.5,2H40.28ZM26,3V5H20V3ZM20,7h6v9.563l-6,3.429ZM12,3V5H6V3ZM6,7h6v9.861L6,21.015Zm7.868,11H14v7.723l14-8V23H61v8H45.87l-3.064-3.064L40.3,29.18a16.867,16.867,0,0,0-3.685-1.527L35.719,25H28.281l-.894,2.653A16.888,16.888,0,0,0,23.7,29.18l-2.509-1.244L18.13,31H3V25.524ZM3,33H16.13l-.194.194L17.18,35.7a16.844,16.844,0,0,0-1.526,3.685L13,40.282v7.437l2.653.894A16.735,16.735,0,0,0,16.55,51H3ZM42.407,57.634l-2.2-1.09-.47.285A14.874,14.874,0,0,1,35.6,58.546l-.533.132L34.281,61H29.718l-.782-2.322-.533-.132a14.887,14.887,0,0,1-4.145-1.717l-.47-.285-2.2,1.09-3.228-3.227,1.09-2.2-.284-.47A14.906,14.906,0,0,1,17.452,47.6l-.131-.533L15,46.282V41.719l2.322-.782.131-.533a14.846,14.846,0,0,1,1.718-4.144l.284-.47-1.09-2.2,3.228-3.227,2.2,1.09.47-.285A14.874,14.874,0,0,1,28.4,29.455l.533-.132L29.719,27h4.563l.782,2.322.533.132a14.887,14.887,0,0,1,4.145,1.717l.47.285,2.2-1.09,3.228,3.227-1.09,2.2.284.47A14.906,14.906,0,0,1,46.548,40.4l.131.533L49,41.718v4.563l-2.322.782-.131.533a14.846,14.846,0,0,1-1.718,4.144l-.284.47,1.09,2.2ZM47.45,51a16.856,16.856,0,0,0,.9-2.388L51,47.718V40.281l-2.653-.894A16.864,16.864,0,0,0,46.821,35.7l1.244-2.509L47.87,33H61V51Z" fill="#723a93"/><path d="M32,31A13,13,0,1,0,45,44,13.015,13.015,0,0,0,32,31Zm0,24A11,11,0,1,1,43,44,11.013,11.013,0,0,1,32,55Z" fill="#723a93"/><path d="M32,35a9,9,0,1,0,9,9A9.01,9.01,0,0,0,32,35Zm0,16a7,7,0,1,1,7-7A7.008,7.008,0,0,1,32,51Z" fill="#723a93"/></g></svg>