<svg xmlns="http://www.w3.org/2000/svg" width="61.909" height="62.42" viewBox="0 0 61.909 62.42"><g transform="translate(-2.095)"><g transform="translate(30.308 9.267)"><path d="M234.425,76.009a.914.914,0,0,0-.914.914v5.583a.914.914,0,1,0,1.829,0V76.923A.914.914,0,0,0,234.425,76.009Z" transform="translate(-233.511 -76.009)" fill="#723a93"/></g><g transform="translate(30.308 43.683)"><path d="M234.425,358.31a.914.914,0,0,0-.914.914v3.187a.914.914,0,1,0,1.829,0v-3.187A.914.914,0,0,0,234.425,358.31Z" transform="translate(-233.511 -358.31)" fill="#723a93"/></g><g transform="translate(20.907 11.785)"><path d="M159.7,99.886l-1.593-2.76a.914.914,0,1,0-1.584.914l1.593,2.76a.914.914,0,0,0,1.584-.914Z" transform="translate(-156.4 -96.669)" fill="#723a93"/></g><g transform="translate(14.025 18.667)"><path d="M104.082,154.833l-2.76-1.593a.914.914,0,1,0-.914,1.584l2.76,1.593a.914.914,0,1,0,.914-1.584Z" transform="translate(-99.951 -153.117)" fill="#723a93"/></g><g transform="translate(43.831 18.667)"><path d="M348.9,153.575a.914.914,0,0,0-1.249-.335l-2.76,1.593a.914.914,0,1,0,.914,1.584l2.76-1.593A.914.914,0,0,0,348.9,153.575Z" transform="translate(-344.432 -153.117)" fill="#723a93"/></g><g transform="translate(14.025 35.876)"><path d="M104.417,294.726a.914.914,0,0,0-1.249-.335l-2.76,1.593a.914.914,0,1,0,.914,1.584l2.76-1.593A.914.914,0,0,0,104.417,294.726Z" transform="translate(-99.951 -294.268)" fill="#723a93"/></g><g transform="translate(38.115 11.785)"><path d="M300.516,96.791a.914.914,0,0,0-1.249.335l-1.593,2.76a.914.914,0,1,0,1.584.914l1.593-2.76A.914.914,0,0,0,300.516,96.791Z" transform="translate(-297.551 -96.669)" fill="#723a93"/></g><g transform="translate(20.907 41.591)"><path d="M159.365,341.271a.914.914,0,0,0-1.249.335l-1.593,2.76a.914.914,0,1,0,1.584.914l1.593-2.76A.914.914,0,0,0,159.365,341.271Z" transform="translate(-156.4 -341.148)" fill="#723a93"/></g><g transform="translate(45.923 28.068)"><path d="M365.694,230.229h-3.187a.914.914,0,1,0,0,1.829h3.187a.914.914,0,1,0,0-1.829Z" transform="translate(-361.593 -230.229)" fill="#723a93"/></g><g transform="translate(11.506 28.068)"><path d="M83.392,230.229H80.205a.914.914,0,1,0,0,1.829h3.187a.914.914,0,0,0,0-1.829Z" transform="translate(-79.291 -230.229)" fill="#723a93"/></g><g transform="translate(40.655 38.549)"><path d="M336.973,316.988a.914.914,0,0,0-.906-.789h-16.6a.914.914,0,0,0-.906.789,28.316,28.316,0,0,0,.26,8.21c1.082,5.766,4.079,9.487,8.669,10.765a.93.93,0,0,0,.552,0c4.59-1.278,7.587-5,8.669-10.765A28.321,28.321,0,0,0,336.973,316.988Zm-16.677,1.04h6.558v3.188h-6.623A28.453,28.453,0,0,1,320.3,318.028Zm6.558,15.786c-3.266-1.347-5.358-4.337-6.225-8.911-.12-.631-.208-1.255-.271-1.858h6.5Zm8.054-8.911c-.867,4.573-2.96,7.564-6.225,8.911V323.044h6.5C335.116,323.648,335.028,324.272,334.908,324.9Zm.4-3.687h-6.623v-3.188h6.557A28.387,28.387,0,0,1,335.306,321.216Z" transform="translate(-318.381 -316.199)" fill="#723a93"/></g><g transform="translate(2.095)"><g transform="translate(0)"><path d="M63.959,37.971a3.652,3.652,0,0,0-3.654-3.486h-.451a29.273,29.273,0,0,0,.5-5.357,29.127,29.127,0,0,0-49.723-20.6A29.125,29.125,0,0,0,12.5,51.438a.914.914,0,1,0,1.176-1.4A27.287,27.287,0,1,1,57.994,34.485H53.688A23.1,23.1,0,0,0,41.493,8.443a.914.914,0,1,0-.814,1.637A21.286,21.286,0,0,1,51.8,34.485H39.78a3.652,3.652,0,0,0-3.654,3.486A36.168,36.168,0,0,0,37.343,49.5a21.263,21.263,0,1,1-.331-40.833.914.914,0,1,0,.5-1.76,23.091,23.091,0,1,0,.406,44.329,21.149,21.149,0,0,0,1.853,3.828,27.354,27.354,0,0,1-22.9-2.713A.914.914,0,1,0,15.9,53.9a29.18,29.18,0,0,0,24.956,2.721,16.206,16.206,0,0,0,8.955,5.769.913.913,0,0,0,.46,0,16.379,16.379,0,0,0,10.756-8.583.914.914,0,0,0-1.619-.85,14.6,14.6,0,0,1-9.366,7.6c-11.7-3.213-12.356-16.787-12.09-22.5a1.826,1.826,0,0,1,1.827-1.743H60.305a1.826,1.826,0,0,1,1.827,1.743,34.131,34.131,0,0,1-1.251,11.277.914.914,0,1,0,1.748.536A35.974,35.974,0,0,0,63.959,37.971Z" transform="translate(-2.095)" fill="#723a93"/></g></g><g transform="translate(25.877 18.667)"><path d="M202.51,153.119a.914.914,0,0,0-.914.914v8.631h-3.517a.914.914,0,0,0,0,1.829h4.431a.914.914,0,0,0,.914-.914v-9.546A.914.914,0,0,0,202.51,153.119Z" transform="translate(-197.165 -153.119)" fill="#723a93"/></g></g></svg>