<svg xmlns="http://www.w3.org/2000/svg" width="68.945" height="64.508" viewBox="0 0 68.945 64.508"><g transform="translate(-0.07 -3.1)"><path d="M63.521,33.927a.719.719,0,0,0-.719-.6H37.652c0-6.467.481-4.664-3.636-11.763a4.8,4.8,0,0,1-.647-2.407V5.256A2.156,2.156,0,0,0,31.214,3.1H26.9a2.156,2.156,0,0,0-2.156,2.156V6.362H12.954V5.277A2.156,2.156,0,0,0,10.8,3.122H6.487A2.156,2.156,0,0,0,4.331,5.277v13.9a4.815,4.815,0,0,1-.647,2.407L.889,26.4A6.194,6.194,0,0,0,.07,29.271V59.279A.719.719,0,0,0,.789,60H23.015l-1.121,6.769a.719.719,0,0,0,.719.841H42.84a.719.719,0,0,0,.719-.6l1.89-11.339,1.883,11.318a.719.719,0,0,0,.719.6H68.286A.719.719,0,0,0,69,66.745ZM4.331,58.553H1.457V29.522A4.779,4.779,0,0,1,2.1,27.115l2.228-3.787ZM33.412,23.343l2.206,3.809a4.8,4.8,0,0,1,.632,2.386V58.568H33.377ZM12.954,7.8H24.732a6.23,6.23,0,0,1-.589,3.133A5.885,5.885,0,0,1,12.954,8.339ZM5.768,58.553c0-56.093-.057-53.37,0-53.556a.776.776,0,0,1,.719-.438H10.8a.719.719,0,0,1,.719.719V8.339A7.33,7.33,0,0,0,26.033,9.776a24.8,24.8,0,0,0,.144-4.506.719.719,0,0,1,.719-.719h4.312a.719.719,0,0,1,.525.237c.273.309.194-3.895.194,53.758ZM26.4,66.17H23.453l1-6.18H27.4Zm22.276,0-2.522-15a.719.719,0,1,0-1.437,0l-2.486,15H27.858l1.028-6.18h8.063a.719.719,0,0,0,.719-.719V34.783H57.83L63.061,66.17Zm15.874,0L59.282,34.783h2.925L67.438,66.17Z" fill="#723a93"/><path d="M18.824,40.742l-1.437,1.437a.722.722,0,0,0,1.02,1.02l.194-.194V53.253a.719.719,0,0,0,1.437,0v-12a.719.719,0,0,0-1.214-.51Z" transform="translate(-4.814 -10.537)" fill="#723a93"/><path d="M29.4,40.53H28.36a3.047,3.047,0,0,0-3.04,3.04v7.358a3.047,3.047,0,0,0,3.04,3.04H29.4a3.047,3.047,0,0,0,3.011-3.04V43.57A3.047,3.047,0,0,0,29.4,40.53Zm1.574,10.4a1.6,1.6,0,0,1-1.574,1.6H28.36a1.6,1.6,0,0,1-1.6-1.6V43.57a1.6,1.6,0,0,1,1.6-1.6H29.4a1.6,1.6,0,0,1,1.6,1.6Z" transform="translate(-7.106 -10.533)" fill="#723a93"/><path d="M28.4,30.138v-3.5a.719.719,0,0,0-.719-.719H21.849a.719.719,0,0,0-.719.719v3.5a.719.719,0,0,0,.719.719h5.835A.719.719,0,0,0,28.4,30.138Zm-1.437-.719h-4.4V27.357h4.4Z" transform="translate(-5.927 -6.422)" fill="#723a93"/></g></svg>