<svg xmlns="http://www.w3.org/2000/svg" width="63.965" height="70.377" viewBox="0 0 63.965 70.377"><g transform="translate(-29.802 -6.5)"><path d="M145.12,7.5h8.148a.963.963,0,0,1,.681.282l3.991,3.991" transform="translate(-98.59 0)" fill="none" stroke="#723a93" stroke-linecap="round" stroke-linejoin="round" stroke-miterlimit="10" stroke-width="2"/><line y2="6.141" transform="translate(75.078 54.509)" fill="none" stroke="#723a93" stroke-linecap="round" stroke-linejoin="round" stroke-miterlimit="10" stroke-width="2"/><line y2="4.273" transform="translate(75.078 37.415)" fill="none" stroke="#723a93" stroke-linecap="round" stroke-linejoin="round" stroke-miterlimit="10" stroke-width="2"/><path d="M30.8,20V8.463a.963.963,0,0,1,.963-.963H46.53l3.991,3.991a.963.963,0,0,0,.681.282H74.115a.963.963,0,0,1,.963.963v11.45" transform="translate(0 0)" fill="none" stroke="#723a93" stroke-linecap="round" stroke-linejoin="round" stroke-miterlimit="10" stroke-width="2"/><path d="M36.144,177.136H31.765a.963.963,0,0,1-.963-.963v-46.3" transform="translate(0 -105.534)" fill="none" stroke="#723a93" stroke-linecap="round" stroke-linejoin="round" stroke-miterlimit="10" stroke-width="2"/><g transform="translate(35.433 11.773)"><line transform="translate(0)" fill="none" stroke="#723a93" stroke-linecap="round" stroke-linejoin="round" stroke-miterlimit="10" stroke-width="2"/><line transform="translate(4.416)" fill="none" stroke="#723a93" stroke-linecap="round" stroke-linejoin="round" stroke-miterlimit="10" stroke-width="2"/><line transform="translate(8.832)" fill="none" stroke="#723a93" stroke-linecap="round" stroke-linejoin="round" stroke-miterlimit="10" stroke-width="2"/></g><g transform="translate(35.433 19.719)"><path d="M86.478,214.17a4.506,4.506,0,0,1-1.422-3.291v-8" transform="translate(-82.223 -188.216)" fill="none" stroke="#723a93" stroke-linecap="round" stroke-linejoin="round" stroke-miterlimit="10" stroke-width="2"/><path d="M222.53,203.108v7.97a4.5,4.5,0,0,1-1.323,3.2" transform="translate(-199.643 -188.415)" fill="none" stroke="#723a93" stroke-linecap="round" stroke-linejoin="round" stroke-miterlimit="10" stroke-width="2"/><path d="M69.531,284.843h-.825a4.9,4.9,0,0,0-4.242,4.853v3.036a.963.963,0,0,0,.963.963H89.183a.963.963,0,0,0,.963-.963V289.7a4.9,4.9,0,0,0-4.242-4.853h-.787" transform="translate(-64.464 -258.905)" fill="none" stroke="#723a93" stroke-linecap="round" stroke-linejoin="round" stroke-miterlimit="10" stroke-width="2"/><path d="M192.946,286.007v-8.852l-3.452-1.226" transform="translate(-172.293 -251.218)" fill="none" stroke="#723a93" stroke-linecap="round" stroke-linejoin="round" stroke-miterlimit="10" stroke-width="2"/><path d="M104.709,275.929l-3.413,1.226v8.852" transform="translate(-96.229 -251.218)" fill="none" stroke="#723a93" stroke-linecap="round" stroke-linejoin="round" stroke-miterlimit="10" stroke-width="2"/><path d="M126.107,245.162v4.233h0a6.459,6.459,0,0,0,8.721,0h0v-4.026" transform="translate(-117.626 -224.684)" fill="none" stroke="#723a93" stroke-linecap="round" stroke-linejoin="round" stroke-miterlimit="10" stroke-width="2"/><g transform="translate(2.21 0)"><path d="M122.788,203.16v.773a6.138,6.138,0,0,1-6.138,6.138h-1.015a6.138,6.138,0,0,1-6.138-6.138v-.825" transform="translate(-105.512 -188.415)" fill="none" stroke="#723a93" stroke-linecap="round" stroke-linejoin="round" stroke-miterlimit="10" stroke-width="2"/><path d="M191.114,146.745A3.755,3.755,0,0,0,188.7,143" transform="translate(-173.82 -136.573)" fill="none" stroke="#723a93" stroke-linecap="round" stroke-linejoin="round" stroke-miterlimit="10" stroke-width="2"/><path d="M185.6,106.809h.749a5.47,5.47,0,0,1,5.47,5.47v3.854" transform="translate(-171.144 -105.365)" fill="none" stroke="#723a93" stroke-linecap="round" stroke-linejoin="round" stroke-miterlimit="10" stroke-width="2"/><path d="M85.03,107.064v-3.58a7.17,7.17,0,0,1,7.17-7.17h3.527a4.2,4.2,0,0,1,4.2,4.2h0a4.2,4.2,0,0,1-4.212,4.2l-5.451-.014a1.678,1.678,0,0,0-1.869,1.637" transform="translate(-84.411 -96.313)" fill="none" stroke="#723a93" stroke-linecap="round" stroke-linejoin="round" stroke-miterlimit="10" stroke-width="2"/><path d="M206.1,170.238h1.909a2.076,2.076,0,0,1,2.076,2.076v.729a2.076,2.076,0,0,1-2.076,2.076H206.1Z" transform="translate(-188.828 -160.068)" fill="none" stroke="#723a93" stroke-linecap="round" stroke-linejoin="round" stroke-miterlimit="10" stroke-width="2"/><path d="M84.515,170.238H82.606a2.076,2.076,0,0,0-2.076,2.076v.729a2.076,2.076,0,0,0,2.076,2.076h1.909Z" transform="translate(-80.53 -160.068)" fill="none" stroke="#723a93" stroke-linecap="round" stroke-linejoin="round" stroke-miterlimit="10" stroke-width="2"/></g><line y2="3.345" transform="translate(12.841 26.405)" fill="none" stroke="#723a93" stroke-linecap="round" stroke-linejoin="round" stroke-miterlimit="10" stroke-width="2"/></g><g transform="translate(65.76 24.594)"><path d="M310.944,144.569H285.863a.963.963,0,0,1-.963-.963V132.712a.963.963,0,0,1,.963-.963h25.081a.963.963,0,0,1,.963.963v10.894A.963.963,0,0,1,310.944,144.569Z" transform="translate(-284.9 -131.749)" fill="none" stroke="#723a93" stroke-linecap="round" stroke-linejoin="round" stroke-miterlimit="10" stroke-width="2"/><line x2="16.004" transform="translate(5.502 4.273)" fill="none" stroke="#723a93" stroke-linecap="round" stroke-linejoin="round" stroke-miterlimit="10" stroke-width="2"/><line x2="13.429" transform="translate(5.502 8.547)" fill="none" stroke="#723a93" stroke-linecap="round" stroke-linejoin="round" stroke-miterlimit="10" stroke-width="2"/></g><g transform="translate(65.76 41.688)"><path d="M311.907,265.049v2.806a.963.963,0,0,1-.963.963H285.863a.963.963,0,0,1-.963-.963V256.961a.963.963,0,0,1,.963-.963h25.081a.963.963,0,0,1,.963.963v3.591" transform="translate(-284.9 -255.998)" fill="none" stroke="#723a93" stroke-linecap="round" stroke-linejoin="round" stroke-miterlimit="10" stroke-width="2"/><line x2="16.004" transform="translate(5.502 4.273)" fill="none" stroke="#723a93" stroke-linecap="round" stroke-linejoin="round" stroke-miterlimit="10" stroke-width="2"/><line x2="13.429" transform="translate(5.502 8.547)" fill="none" stroke="#723a93" stroke-linecap="round" stroke-linejoin="round" stroke-miterlimit="10" stroke-width="2"/></g><g transform="translate(49.257 60.919)"><path d="M164.942,395.778H207.49a.963.963,0,0,1,.963.963v10.894a.963.963,0,0,1-.963.963H164.942" transform="translate(-164.942 -395.778)" fill="none" stroke="#723a93" stroke-linecap="round" stroke-linejoin="round" stroke-miterlimit="10" stroke-width="2"/><line x2="29.774" transform="translate(8.235 4.273)" fill="none" stroke="#723a93" stroke-linecap="round" stroke-linejoin="round" stroke-miterlimit="10" stroke-width="2"/><line x2="27.199" transform="translate(8.235 8.547)" fill="none" stroke="#723a93" stroke-linecap="round" stroke-linejoin="round" stroke-miterlimit="10" stroke-width="2"/></g><g transform="translate(35.074 58.78)"><path d="M65.623,381.7a8.536,8.536,0,1,1-2.938,3.407" transform="translate(-61.854 -380.237)" fill="none" stroke="#723a93" stroke-linecap="round" stroke-linejoin="round" stroke-miterlimit="10" stroke-width="2"/><path d="M103.9,420.216l-.99,2.007-2.215.322,1.6,1.562-.378,2.206,1.981-1.041,1.981,1.041-.378-2.206,1.6-1.562-2.215-.322Z" transform="translate(-95.349 -414.716)" fill="none" stroke="#723a93" stroke-linecap="round" stroke-linejoin="round" stroke-miterlimit="10" stroke-width="2"/></g></g></svg>