<svg xmlns="http://www.w3.org/2000/svg" width="98.995" height="83.636" viewBox="0 0 98.995 83.636"><path d="M97.47,79.791h-42.9v-.976a5.056,5.056,0,1,0-10.113,0v.976H1.565a1.545,1.545,0,0,0,0,3.09h42.9v7.265a7.724,7.724,0,0,0-6.139,3.933L28.28,111.47a7.929,7.929,0,0,0,6.868,11.9H63.887a7.93,7.93,0,0,0,6.87-11.9L60.715,94.079a7.728,7.728,0,0,0-6.141-3.935V82.883h42.9a1.546,1.546,0,0,0,0-3.092ZM49.516,76.848a1.97,1.97,0,0,1,1.968,1.968v11.3H47.555v-11.3a1.965,1.965,0,0,1,1.961-1.968Zm8.522,18.778h0l10.043,17.393a4.838,4.838,0,0,1-4.192,7.257H35.149a4.837,4.837,0,0,1-4.192-7.257L41,95.626A4.671,4.671,0,0,1,45.19,93.2h8.655A4.678,4.678,0,0,1,58.037,95.626ZM81.606,74.547A17.409,17.409,0,1,0,64.2,57.139,17.429,17.429,0,0,0,81.606,74.547Zm0-31.725A14.317,14.317,0,1,1,67.29,57.139,14.332,14.332,0,0,1,81.606,42.822Zm2.407,18.027a2.3,2.3,0,0,0-2.405-2.166,5.387,5.387,0,0,1-5.492-5.261,5.3,5.3,0,0,1,3.947-5.043v-1.2a1.545,1.545,0,1,1,3.09,0v1.2a5.3,5.3,0,0,1,3.952,5.043,1.545,1.545,0,0,1-3.09,0,2.327,2.327,0,0,0-2.405-2.166,2.18,2.18,0,1,0,0,4.337H81.8a1.441,1.441,0,0,1,.2.015,5.367,5.367,0,0,1,5.1,5.242,5.3,5.3,0,0,1-3.952,5.043V67.1a1.545,1.545,0,0,1-3.09,0v-1.21a5.3,5.3,0,0,1-3.947-5.043,1.545,1.545,0,1,1,3.09,0,2.3,2.3,0,0,0,2.4,2.166A2.329,2.329,0,0,0,84.014,60.849ZM5.544,74.547h23.85a5.482,5.482,0,0,0,5.476-5.476V45.218a5.482,5.482,0,0,0-5.476-5.476H5.544A5.482,5.482,0,0,0,.068,45.218V69.071A5.484,5.484,0,0,0,5.544,74.547Zm8.972-31.716h5.9v8.819L18.2,50.456a1.55,1.55,0,0,0-1.466,0l-2.216,1.195ZM3.16,45.218a2.387,2.387,0,0,1,2.384-2.384h5.882V54.24a1.546,1.546,0,0,0,2.28,1.359l3.761-2.028L21.234,55.6a1.544,1.544,0,0,0,2.278-1.359V42.832h5.882a2.387,2.387,0,0,1,2.384,2.384V69.069a2.387,2.387,0,0,1-2.384,2.384H5.544A2.387,2.387,0,0,1,3.16,69.069Z" transform="translate(-0.02 -39.73)" fill="#522969"/></svg>