<svg xmlns="http://www.w3.org/2000/svg" width="59.99" height="60" viewBox="0 0 59.99 60"><g transform="translate(-2 -2)"><path d="M60.99,22h-1V10.62A8.63,8.63,0,0,0,51.37,2H48.99a3,3,0,0,0-3,3v7.1a6.887,6.887,0,0,0-5-2.1,7,7,0,0,0-4.646,1.714,5.777,5.777,0,0,0-1.925,3.506c-.059.017-.114.043-.172.062A6.348,6.348,0,0,1,33.894,13h.1a1,1,0,0,0,1-1V9a3,3,0,0,0-3-3h-5a3,3,0,0,0-3,3v3a1,1,0,0,0,1,1h.1a5.9,5.9,0,0,1-.932,3.445A13.257,13.257,0,0,0,22.071,22H20.99a1,1,0,0,0-1,1V43H17.517l-4.191-6.116,1.112.2a3.121,3.121,0,1,0,1.13-6.139L7.222,29.414a3.125,3.125,0,0,0-3.634,2.5L2.052,40.264a3.122,3.122,0,0,0,6.14,1.129L8.4,40.276l5.772,8.3a1,1,0,0,0,.82.429h5V59a3,3,0,0,0,3,3h36a3,3,0,0,0,3-3V23A1,1,0,0,0,60.99,22Zm-11,2h4V54.586l-4,4Zm5,32.414L58.576,60H51.4Zm1-1.828V24h4V58.586ZM48.99,4h2.38a6.627,6.627,0,0,1,6.589,6H53.99a1,1,0,0,0,0,2h4v4h-4a1,1,0,0,0,0,2h4v4H50.142a4.2,4.2,0,0,0,.848-2.5,4.287,4.287,0,0,0-1.483-3.206,4.756,4.756,0,0,0-1.517-.924V5a1,1,0,0,1,1-1ZM36.36,16a3.733,3.733,0,0,1,1.311-2.79A4.994,4.994,0,0,1,40.99,12a4.353,4.353,0,0,1,4.62,4.04,1,1,0,0,0,.848.988c.106.016.2.032.325.06a2.922,2.922,0,0,1,1.389.695A2.273,2.273,0,0,1,48.99,19.5a2.622,2.622,0,0,1-2.258,2.424A2.667,2.667,0,0,1,46.05,22H41.99V19.414L43.7,17.707a1,1,0,1,0-1.414-1.414L40.99,17.586,39.7,16.293a1,1,0,1,0-1.414,1.414l1.707,1.707V22H36.91a13.259,13.259,0,0,0-1.683-4.907c.09-.019.175-.05.268-.062A1.04,1.04,0,0,0,36.36,16ZM25.99,9a1,1,0,0,1,1-1h5a1,1,0,0,1,1,1v2h-7Zm-.168,8.556A7.909,7.909,0,0,0,27.088,13h4.8a7.87,7.87,0,0,0,.954,4.036,4.3,4.3,0,0,0,.251.424l.062.1A11.333,11.333,0,0,1,34.887,22H24.09a11.267,11.267,0,0,1,1.732-4.444ZM8.668,37.164a1,1,0,0,0-1.8.39l-.64,3.478a1.122,1.122,0,0,1-2.206-.406L5.554,32.28a1.121,1.121,0,0,1,1.306-.9l8.345,1.536a1.121,1.121,0,1,1-.406,2.206l-3.477-.64a1,1,0,0,0-1.006,1.549l5.849,8.535A1,1,0,0,0,16.99,45h6.565l7.664,8.239a1,1,0,0,1-1.68,1.083.989.989,0,0,0-.107-.13L22.706,47.3a1,1,0,0,0-.716-.3H15.513ZM21.99,59V49.432l5.956,6.1a3,3,0,1,0,4.886-3.481,1.015,1.015,0,0,0-.091-.113l-8.019-8.621A1,1,0,0,0,23.99,43h-2V24h26V60h-25a1,1,0,0,1-1-1Zm16-19h-4a4,4,0,0,1,0-8h1V31a1,1,0,0,1,2,0v1h3a1,1,0,0,1,0,2h-6a2,2,0,0,0,0,4h4a4,4,0,0,1,0,8h-1v1a1,1,0,0,1-2,0V46h-3a1,1,0,0,1,0-2h6a2,2,0,0,0,0-4Z" fill="#723a93"/></g></svg>