<svg xmlns="http://www.w3.org/2000/svg" xmlns:xlink="http://www.w3.org/1999/xlink" width="838" height="654" viewBox="0 0 838 654"><defs><filter id="a" x="0" y="0" width="838" height="654" filterUnits="userSpaceOnUse"><feOffset dy="3" input="SourceAlpha"/><feGaussianBlur stdDeviation="3" result="b"/><feFlood flood-opacity="0.161"/><feComposite operator="in" in2="b"/><feComposite in="SourceGraphic"/></filter></defs><g transform="translate(-381.051 -1358)"><g transform="matrix(1, 0, 0, 1, 381.05, 1358)" filter="url(#a)"><rect width="820" height="636" rx="15" transform="translate(9 6)" fill="#f5fef9"/></g><path d="M741.529,250.067A131.847,131.847,0,0,0,610.019,372.6h-.332V513.749h0V454.983a67.174,67.174,0,0,1,59.171,58.766h72.671a131.841,131.841,0,1,0,0-263.682Z" transform="translate(197.827 1160.242)" fill="#723a93"/><path d="M750.84,610.02v-.333H668.975a67.179,67.179,0,0,1-59.288,59.692v72.15A131.842,131.842,0,1,0,750.84,610.02Z" transform="translate(197.827 1079.32)" fill="#0e3060"/><path d="M513.75,454.984V381.909A131.842,131.842,0,1,0,372.6,513.418v.332H454.58A67.174,67.174,0,0,1,513.75,454.984Z" transform="translate(278.748 1160.242)" fill="#517e64"/><path d="M454.463,609.688H381.909A131.841,131.841,0,1,0,513.419,750.84h.332V669.38A67.179,67.179,0,0,1,454.463,609.688Z" transform="translate(278.748 1079.319)" fill="#7e4b10"/><circle cx="117.126" cy="117.126" r="117.126" transform="translate(495.013 1542.15) rotate(-45)" fill="#ecfef4"/><ellipse cx="117.126" cy="117.126" rx="117.126" ry="117.126" transform="translate(802.815 1635.533) rotate(-79)" fill="#f6edfb"/><path d="M117.126,0A117.126,117.126,0,1,1,0,117.126,117.126,117.126,0,0,1,117.126,0Z" transform="translate(773.709 1820.85) rotate(-45)" fill="#e5e9ee"/><ellipse cx="117.126" cy="117.126" rx="117.126" ry="117.126" transform="translate(542.575 1936.973) rotate(-89)" fill="#fff4e7"/><path d="M609.688,514.483v58.766h59.171A67.175,67.175,0,0,0,609.688,514.483Z" transform="translate(197.827 1100.743)" fill="#8943b2"/><path d="M609.688,669.38a67.179,67.179,0,0,0,59.288-59.692H609.688Z" transform="translate(197.827 1079.319)" fill="#163f78"/><path d="M513.961,573.249h59.171V514.483A67.174,67.174,0,0,0,513.961,573.249Z" transform="translate(219.367 1100.743)" fill="#67a581"/><path d="M573.1,669.38V609.688H513.81A67.179,67.179,0,0,0,573.1,669.38Z" transform="translate(219.401 1079.319)" fill="#925916"/><path d="M64.776,14.737a4.528,4.528,0,0,1-1.525,3.252,5.355,5.355,0,0,1-3.625,1.187,4.816,4.816,0,0,1-3.872-1.657,6.793,6.793,0,0,1-1.411-4.548v-.782a7.671,7.671,0,0,1,.65-3.252,4.874,4.874,0,0,1,1.859-2.158,5.809,5.809,0,0,1,6.376.435,4.866,4.866,0,0,1,1.564,3.331H62.157a2.673,2.673,0,0,0-.69-1.8,2.555,2.555,0,0,0-1.806-.558,2.24,2.24,0,0,0-1.973.945,5.3,5.3,0,0,0-.672,2.931v.967a5.667,5.667,0,0,0,.628,3.032,2.2,2.2,0,0,0,1.982.958,2.6,2.6,0,0,0,1.824-.558,2.521,2.521,0,0,0,.69-1.727ZM71.851,19a2.821,2.821,0,0,1-.255-.853,3.073,3.073,0,0,1-2.4,1.028,3.376,3.376,0,0,1-2.316-.809,2.6,2.6,0,0,1-.918-2.039,2.687,2.687,0,0,1,1.121-2.32,5.529,5.529,0,0,1,3.239-.817h1.169v-.545a1.567,1.567,0,0,0-.338-1.055,1.331,1.331,0,0,0-1.068-.4,1.513,1.513,0,0,0-1.006.308,1.045,1.045,0,0,0-.365.844h-2.54a2.551,2.551,0,0,1,.51-1.529,3.37,3.37,0,0,1,1.441-1.1,5.253,5.253,0,0,1,2.092-.4,4.15,4.15,0,0,1,2.791.883,3.09,3.09,0,0,1,1.033,2.483V16.8a4.546,4.546,0,0,0,.378,2.048V19Zm-2.1-1.767a2.188,2.188,0,0,0,1.037-.25,1.645,1.645,0,0,0,.7-.672V14.676h-.949q-1.907,0-2.03,1.318l-.009.149a1.017,1.017,0,0,0,.334.782A1.3,1.3,0,0,0,69.75,17.233ZM78.671,19H76.122V5.5h2.549Zm4.772,0H80.895V9.49h2.549Zm-2.7-11.971a1.251,1.251,0,0,1,.382-.94,1.648,1.648,0,0,1,2.079,0,1.244,1.244,0,0,1,.387.94,1.247,1.247,0,0,1-.391.949,1.629,1.629,0,0,1-2.065,0A1.247,1.247,0,0,1,80.745,7.029Zm4.395,7.146a5.731,5.731,0,0,1,1-3.542,3.237,3.237,0,0,1,2.729-1.318,2.913,2.913,0,0,1,2.294,1.037V5.5h2.549V19H91.415l-.123-1.011a2.989,2.989,0,0,1-2.443,1.187,3.228,3.228,0,0,1-2.694-1.323A5.916,5.916,0,0,1,85.14,14.175Zm2.54.185a3.744,3.744,0,0,0,.466,2.048,1.518,1.518,0,0,0,1.354.712,1.7,1.7,0,0,0,1.661-.993V12.373a1.676,1.676,0,0,0-1.644-.993Q87.68,11.38,87.68,14.359ZM101.189,19a2.821,2.821,0,0,1-.255-.853,3.073,3.073,0,0,1-2.4,1.028,3.376,3.376,0,0,1-2.316-.809,2.6,2.6,0,0,1-.918-2.039,2.687,2.687,0,0,1,1.121-2.32,5.529,5.529,0,0,1,3.239-.817h1.169v-.545a1.567,1.567,0,0,0-.338-1.055,1.331,1.331,0,0,0-1.068-.4,1.513,1.513,0,0,0-1.006.308,1.045,1.045,0,0,0-.365.844h-2.54a2.551,2.551,0,0,1,.51-1.529,3.37,3.37,0,0,1,1.441-1.1,5.253,5.253,0,0,1,2.092-.4,4.15,4.15,0,0,1,2.791.883,3.09,3.09,0,0,1,1.033,2.483V16.8a4.546,4.546,0,0,0,.378,2.048V19Zm-2.1-1.767a2.188,2.188,0,0,0,1.037-.25,1.645,1.645,0,0,0,.7-.672V14.676h-.949q-1.907,0-2.03,1.318l-.009.149a1.017,1.017,0,0,0,.334.782A1.3,1.3,0,0,0,99.088,17.233Zm5.845-3.059a5.731,5.731,0,0,1,1-3.542,3.237,3.237,0,0,1,2.729-1.318,2.913,2.913,0,0,1,2.294,1.037V5.5H113.5V19h-2.294l-.123-1.011a2.989,2.989,0,0,1-2.443,1.187,3.228,3.228,0,0,1-2.694-1.323A5.916,5.916,0,0,1,104.933,14.175Zm2.54.185a3.744,3.744,0,0,0,.466,2.048,1.518,1.518,0,0,0,1.354.712,1.7,1.7,0,0,0,1.661-.993V12.373a1.676,1.676,0,0,0-1.644-.993Q107.473,11.38,107.473,14.359Zm8.121,3.393a1.279,1.279,0,0,1,.409-.984,1.588,1.588,0,0,1,2.057,0,1.279,1.279,0,0,1,.409.984,1.261,1.261,0,0,1-.4.971,1.614,1.614,0,0,1-2.065,0A1.261,1.261,0,0,1,115.594,17.752Zm0-7.2A1.279,1.279,0,0,1,116,9.569a1.588,1.588,0,0,1,2.057,0,1.279,1.279,0,0,1,.409.984,1.261,1.261,0,0,1-.4.971,1.614,1.614,0,0,1-2.065,0A1.261,1.261,0,0,1,115.594,10.554ZM7.792,53.977a2.082,2.082,0,0,0,1.352-.469,1.649,1.649,0,0,0,.641-1.172h1.367a2.621,2.621,0,0,1-.5,1.383,3.293,3.293,0,0,1-1.23,1.047,3.55,3.55,0,0,1-1.629.391A3.482,3.482,0,0,1,5.046,54a4.59,4.59,0,0,1-1.02-3.152v-.242a5.089,5.089,0,0,1,.453-2.2,3.451,3.451,0,0,1,1.3-1.492,3.7,3.7,0,0,1,2-.531,3.39,3.39,0,0,1,2.363.852,3.043,3.043,0,0,1,1,2.211H9.784a1.992,1.992,0,0,0-.621-1.348,1.932,1.932,0,0,0-1.379-.527,2.023,2.023,0,0,0-1.707.793,3.724,3.724,0,0,0-.605,2.293v.273a3.65,3.65,0,0,0,.6,2.25A2.033,2.033,0,0,0,7.792,53.977ZM18,55a3.036,3.036,0,0,1-.2-.891,3.225,3.225,0,0,1-2.406,1.047,2.984,2.984,0,0,1-2.051-.707,2.287,2.287,0,0,1-.8-1.793,2.39,2.39,0,0,1,1-2.051,4.733,4.733,0,0,1,2.824-.73h1.406v-.664A1.623,1.623,0,0,0,17.316,48a1.821,1.821,0,0,0-1.336-.449,2.107,2.107,0,0,0-1.3.391,1.151,1.151,0,0,0-.523.945H12.706a2,2,0,0,1,.449-1.223,3.066,3.066,0,0,1,1.219-.934,4.1,4.1,0,0,1,1.691-.344,3.342,3.342,0,0,1,2.289.73,2.635,2.635,0,0,1,.859,2.012v3.891a4.757,4.757,0,0,0,.3,1.852V55Zm-2.4-1.1a2.54,2.54,0,0,0,1.289-.352,2.127,2.127,0,0,0,.883-.914V50.9H16.636q-2.656,0-2.656,1.555a1.316,1.316,0,0,0,.453,1.063A1.742,1.742,0,0,0,15.6,53.9ZM28.62,50.867a5.062,5.062,0,0,1-.883,3.109,2.829,2.829,0,0,1-2.391,1.18,3.1,3.1,0,0,1-2.422-.977v4.07H21.48v-11.7H22.8l.07.938a2.977,2.977,0,0,1,2.453-1.094,2.882,2.882,0,0,1,2.41,1.148,5.117,5.117,0,0,1,.887,3.2ZM27.175,50.7a3.735,3.735,0,0,0-.609-2.258,1.963,1.963,0,0,0-1.672-.828,2.125,2.125,0,0,0-1.969,1.164V52.82a2.129,2.129,0,0,0,1.984,1.156,1.954,1.954,0,0,0,1.652-.824A4.077,4.077,0,0,0,27.175,50.7Zm8.5,4.3a3.036,3.036,0,0,1-.2-.891,3.225,3.225,0,0,1-2.406,1.047,2.984,2.984,0,0,1-2.051-.707,2.287,2.287,0,0,1-.8-1.793,2.39,2.39,0,0,1,1-2.051,4.733,4.733,0,0,1,2.824-.73h1.406v-.664A1.623,1.623,0,0,0,35,48a1.821,1.821,0,0,0-1.336-.449,2.107,2.107,0,0,0-1.3.391,1.151,1.151,0,0,0-.523.945H30.386a2,2,0,0,1,.449-1.223,3.066,3.066,0,0,1,1.219-.934,4.1,4.1,0,0,1,1.691-.344,3.342,3.342,0,0,1,2.289.73,2.635,2.635,0,0,1,.859,2.012v3.891a4.757,4.757,0,0,0,.3,1.852V55Zm-2.4-1.1a2.54,2.54,0,0,0,1.289-.352,2.127,2.127,0,0,0,.883-.914V50.9H34.316q-2.656,0-2.656,1.555a1.316,1.316,0,0,0,.453,1.063A1.742,1.742,0,0,0,33.277,53.9Zm9.273.078a2.082,2.082,0,0,0,1.352-.469,1.649,1.649,0,0,0,.641-1.172h1.367a2.621,2.621,0,0,1-.5,1.383,3.293,3.293,0,0,1-1.23,1.047,3.55,3.55,0,0,1-1.629.391A3.482,3.482,0,0,1,39.8,54a4.59,4.59,0,0,1-1.02-3.152v-.242a5.089,5.089,0,0,1,.453-2.2,3.451,3.451,0,0,1,1.3-1.492,3.7,3.7,0,0,1,2-.531,3.39,3.39,0,0,1,2.363.852,3.043,3.043,0,0,1,1,2.211H44.542a1.992,1.992,0,0,0-.621-1.348,1.932,1.932,0,0,0-1.379-.527,2.023,2.023,0,0,0-1.707.793,3.724,3.724,0,0,0-.605,2.293v.273a3.65,3.65,0,0,0,.6,2.25A2.033,2.033,0,0,0,42.55,53.977ZM49.1,55H47.659V46.547H49.1ZM47.542,44.3a.863.863,0,0,1,.215-.594.807.807,0,0,1,.637-.242.819.819,0,0,1,.641.242.854.854,0,0,1,.219.594.826.826,0,0,1-.219.586.834.834,0,0,1-.641.234.821.821,0,0,1-.637-.234A.834.834,0,0,1,47.542,44.3Zm3.523,6.4a4.952,4.952,0,0,1,.922-3.129,3.137,3.137,0,0,1,4.766-.168V43H58.2V55H56.87l-.07-.906a2.943,2.943,0,0,1-2.414,1.063,2.887,2.887,0,0,1-2.395-1.2,5.008,5.008,0,0,1-.926-3.141Zm1.445.164a3.749,3.749,0,0,0,.594,2.25,1.919,1.919,0,0,0,1.641.813A2.108,2.108,0,0,0,56.753,52.7V48.813a2.125,2.125,0,0,0-1.992-1.2,1.929,1.929,0,0,0-1.656.82A4.128,4.128,0,0,0,52.511,50.867ZM65.659,55a3.036,3.036,0,0,1-.2-.891,3.225,3.225,0,0,1-2.406,1.047A2.984,2.984,0,0,1,61,54.449a2.287,2.287,0,0,1-.8-1.793,2.39,2.39,0,0,1,1-2.051,4.733,4.733,0,0,1,2.824-.73h1.406v-.664A1.623,1.623,0,0,0,64.98,48a1.821,1.821,0,0,0-1.336-.449,2.107,2.107,0,0,0-1.3.391,1.151,1.151,0,0,0-.523.945H60.37a2,2,0,0,1,.449-1.223,3.066,3.066,0,0,1,1.219-.934,4.1,4.1,0,0,1,1.691-.344,3.342,3.342,0,0,1,2.289.73,2.635,2.635,0,0,1,.859,2.012v3.891a4.757,4.757,0,0,0,.3,1.852V55Zm-2.4-1.1a2.54,2.54,0,0,0,1.289-.352,2.127,2.127,0,0,0,.883-.914V50.9H64.3q-2.656,0-2.656,1.555a1.316,1.316,0,0,0,.453,1.063A1.742,1.742,0,0,0,63.261,53.9Zm5.531-3.2a4.952,4.952,0,0,1,.922-3.129,3.137,3.137,0,0,1,4.766-.168V43h1.445V55H74.6l-.07-.906a2.943,2.943,0,0,1-2.414,1.063,2.887,2.887,0,0,1-2.395-1.2,5.008,5.008,0,0,1-.926-3.141Zm1.445.164a3.749,3.749,0,0,0,.594,2.25,1.92,1.92,0,0,0,1.641.813A2.108,2.108,0,0,0,74.48,52.7V48.813a2.125,2.125,0,0,0-1.992-1.2,1.929,1.929,0,0,0-1.656.82A4.128,4.128,0,0,0,70.238,50.867Zm19.031,0a5.062,5.062,0,0,1-.883,3.109A2.829,2.829,0,0,1,86,55.156a3.1,3.1,0,0,1-2.422-.977v4.07H82.128v-11.7h1.32l.07.938a2.977,2.977,0,0,1,2.453-1.094,2.882,2.882,0,0,1,2.41,1.148,5.117,5.117,0,0,1,.887,3.2ZM87.824,50.7a3.735,3.735,0,0,0-.609-2.258,1.963,1.963,0,0,0-1.672-.828,2.125,2.125,0,0,0-1.969,1.164V52.82a2.129,2.129,0,0,0,1.984,1.156,1.954,1.954,0,0,0,1.652-.824A4.077,4.077,0,0,0,87.824,50.7Zm8.5,4.3a3.036,3.036,0,0,1-.2-.891,3.225,3.225,0,0,1-2.406,1.047,2.984,2.984,0,0,1-2.051-.707,2.288,2.288,0,0,1-.8-1.793,2.39,2.39,0,0,1,1-2.051,4.733,4.733,0,0,1,2.824-.73H96.1v-.664A1.623,1.623,0,0,0,95.644,48a1.821,1.821,0,0,0-1.336-.449,2.107,2.107,0,0,0-1.3.391,1.151,1.151,0,0,0-.523.945H91.034a2,2,0,0,1,.449-1.223,3.066,3.066,0,0,1,1.219-.934,4.1,4.1,0,0,1,1.691-.344,3.342,3.342,0,0,1,2.289.73,2.635,2.635,0,0,1,.859,2.012v3.891a4.757,4.757,0,0,0,.3,1.852V55Zm-2.4-1.1a2.54,2.54,0,0,0,1.289-.352,2.127,2.127,0,0,0,.883-.914V50.9H94.964q-2.656,0-2.656,1.555a1.316,1.316,0,0,0,.453,1.063A1.742,1.742,0,0,0,93.925,53.9Zm9.969-6.055a4.331,4.331,0,0,0-.711-.055A1.9,1.9,0,0,0,101.253,49v6H99.808V46.547h1.406l.023.977a2.251,2.251,0,0,1,2.016-1.133,1.477,1.477,0,0,1,.641.109ZM110.128,55a3.036,3.036,0,0,1-.2-.891,3.225,3.225,0,0,1-2.406,1.047,2.984,2.984,0,0,1-2.051-.707,2.288,2.288,0,0,1-.8-1.793,2.39,2.39,0,0,1,1-2.051,4.733,4.733,0,0,1,2.824-.73H109.9v-.664A1.623,1.623,0,0,0,109.449,48a1.821,1.821,0,0,0-1.336-.449,2.107,2.107,0,0,0-1.3.391,1.151,1.151,0,0,0-.523.945h-1.453a2,2,0,0,1,.449-1.223,3.066,3.066,0,0,1,1.219-.934,4.1,4.1,0,0,1,1.691-.344,3.342,3.342,0,0,1,2.289.73,2.635,2.635,0,0,1,.859,2.012v3.891a4.757,4.757,0,0,0,.3,1.852V55Zm-2.4-1.1a2.54,2.54,0,0,0,1.289-.352,2.127,2.127,0,0,0,.883-.914V50.9h-1.133q-2.656,0-2.656,1.555a1.316,1.316,0,0,0,.453,1.063A1.742,1.742,0,0,0,107.73,53.9Zm13.234.078a2.082,2.082,0,0,0,1.352-.469,1.649,1.649,0,0,0,.641-1.172h1.367a2.621,2.621,0,0,1-.5,1.383,3.293,3.293,0,0,1-1.23,1.047,3.55,3.55,0,0,1-1.629.391A3.482,3.482,0,0,1,118.218,54a4.59,4.59,0,0,1-1.02-3.152v-.242a5.089,5.089,0,0,1,.453-2.2,3.451,3.451,0,0,1,1.3-1.492,3.7,3.7,0,0,1,2-.531,3.39,3.39,0,0,1,2.363.852,3.043,3.043,0,0,1,1,2.211h-1.367a1.992,1.992,0,0,0-.621-1.348,1.932,1.932,0,0,0-1.379-.527,2.023,2.023,0,0,0-1.707.793,3.724,3.724,0,0,0-.605,2.293v.273a3.65,3.65,0,0,0,.6,2.25A2.033,2.033,0,0,0,120.964,53.977Zm10.2.188a3.07,3.07,0,0,1-2.477.992,2.628,2.628,0,0,1-2.059-.785,3.4,3.4,0,0,1-.715-2.324v-5.5h1.445v5.461q0,1.922,1.563,1.922a2.163,2.163,0,0,0,2.2-1.234V46.547h1.445V55H131.2Zm4.961-7.617.039.938a3.122,3.122,0,0,1,2.508-1.094,2.417,2.417,0,0,1,2.414,1.359,3.2,3.2,0,0,1,1.1-.984,3.242,3.242,0,0,1,1.6-.375q2.781,0,2.828,2.945V55h-1.445V49.422a1.941,1.941,0,0,0-.414-1.355,1.823,1.823,0,0,0-1.391-.449,1.917,1.917,0,0,0-1.336.48,1.949,1.949,0,0,0-.617,1.293V55h-1.453V49.461a1.613,1.613,0,0,0-1.8-1.844,1.934,1.934,0,0,0-1.945,1.211V55h-1.445V46.547Zm19.8,4.32a5.062,5.062,0,0,1-.883,3.109,2.829,2.829,0,0,1-2.391,1.18,3.1,3.1,0,0,1-2.422-.977v4.07h-1.445v-11.7h1.32l.07.938a2.977,2.977,0,0,1,2.453-1.094,2.882,2.882,0,0,1,2.41,1.148,5.117,5.117,0,0,1,.887,3.2Zm-1.445-.164a3.735,3.735,0,0,0-.609-2.258,1.963,1.963,0,0,0-1.672-.828,2.125,2.125,0,0,0-1.969,1.164V52.82a2.129,2.129,0,0,0,1.984,1.156,1.954,1.954,0,0,0,1.652-.824A4.077,4.077,0,0,0,154.488,50.7Zm4.852,4.3h-1.445V43h1.445Zm3.883,0h-1.445V46.547h1.445Zm-1.562-10.7a.863.863,0,0,1,.215-.594.807.807,0,0,1,.637-.242.819.819,0,0,1,.641.242.854.854,0,0,1,.219.594.826.826,0,0,1-.219.586.834.834,0,0,1-.641.234.821.821,0,0,1-.637-.234A.834.834,0,0,1,161.659,44.3Zm7.961,3.539a4.331,4.331,0,0,0-.711-.055A1.9,1.9,0,0,0,166.98,49v6h-1.445V46.547h1.406l.023.977a2.251,2.251,0,0,1,2.016-1.133,1.477,1.477,0,0,1,.641.109ZM16.488,71.977a2.082,2.082,0,0,0,1.352-.469,1.649,1.649,0,0,0,.641-1.172h1.367a2.621,2.621,0,0,1-.5,1.383,3.293,3.293,0,0,1-1.23,1.047,3.55,3.55,0,0,1-1.629.391A3.482,3.482,0,0,1,13.742,72a4.59,4.59,0,0,1-1.02-3.152v-.242a5.089,5.089,0,0,1,.453-2.2,3.451,3.451,0,0,1,1.3-1.492,3.7,3.7,0,0,1,2-.531,3.39,3.39,0,0,1,2.363.852,3.043,3.043,0,0,1,1,2.211H18.48a1.992,1.992,0,0,0-.621-1.348,1.932,1.932,0,0,0-1.379-.527,2.023,2.023,0,0,0-1.707.793,3.724,3.724,0,0,0-.605,2.293v.273a3.65,3.65,0,0,0,.6,2.25A2.033,2.033,0,0,0,16.488,71.977Zm4.6-3.281a4.993,4.993,0,0,1,.488-2.234,3.643,3.643,0,0,1,1.359-1.531,3.7,3.7,0,0,1,1.988-.539,3.565,3.565,0,0,1,2.793,1.2,4.6,4.6,0,0,1,1.066,3.18v.1a5.036,5.036,0,0,1-.473,2.215,3.589,3.589,0,0,1-1.352,1.527,3.743,3.743,0,0,1-2.02.547,3.556,3.556,0,0,1-2.785-1.2A4.575,4.575,0,0,1,21.089,68.8Zm1.453.172a3.616,3.616,0,0,0,.652,2.258,2.211,2.211,0,0,0,3.5-.012,3.955,3.955,0,0,0,.648-2.418,3.61,3.61,0,0,0-.66-2.254,2.1,2.1,0,0,0-1.754-.863,2.075,2.075,0,0,0-1.727.852A3.925,3.925,0,0,0,22.542,68.867Zm9.422-4.32.047,1.063a3.08,3.08,0,0,1,2.531-1.219q2.68,0,2.7,3.023V73H35.8V67.406a1.946,1.946,0,0,0-.418-1.352,1.675,1.675,0,0,0-1.277-.437,2.086,2.086,0,0,0-1.234.375,2.546,2.546,0,0,0-.828.984V73H30.6V64.547ZM44.956,73H43.511V61h1.445Zm7.531,0a3.036,3.036,0,0,1-.2-.891,3.225,3.225,0,0,1-2.406,1.047,2.984,2.984,0,0,1-2.051-.707,2.287,2.287,0,0,1-.8-1.793,2.39,2.39,0,0,1,1-2.051,4.733,4.733,0,0,1,2.824-.73h1.406v-.664A1.623,1.623,0,0,0,51.808,66a1.821,1.821,0,0,0-1.336-.449,2.108,2.108,0,0,0-1.3.391,1.151,1.151,0,0,0-.523.945H47.2a2,2,0,0,1,.449-1.223,3.066,3.066,0,0,1,1.219-.934,4.1,4.1,0,0,1,1.691-.344,3.342,3.342,0,0,1,2.289.73,2.635,2.635,0,0,1,.859,2.012v3.891a4.757,4.757,0,0,0,.3,1.852V73Zm-2.4-1.1a2.54,2.54,0,0,0,1.289-.352,2.127,2.127,0,0,0,.883-.914V68.9H51.128q-2.656,0-2.656,1.555a1.316,1.316,0,0,0,.453,1.063A1.742,1.742,0,0,0,50.089,71.9Zm10.8-1.141a1.064,1.064,0,0,0-.441-.91,4.249,4.249,0,0,0-1.539-.559,7.277,7.277,0,0,1-1.742-.562,2.479,2.479,0,0,1-.953-.781,1.869,1.869,0,0,1-.309-1.078,2.193,2.193,0,0,1,.879-1.758,3.432,3.432,0,0,1,2.246-.719,3.532,3.532,0,0,1,2.332.742,2.357,2.357,0,0,1,.895,1.9H60.808a1.3,1.3,0,0,0-.5-1.023,1.888,1.888,0,0,0-1.27-.43,1.976,1.976,0,0,0-1.234.344,1.082,1.082,0,0,0-.445.9.877.877,0,0,0,.414.789,5.1,5.1,0,0,0,1.5.508,7.8,7.8,0,0,1,1.754.578,2.558,2.558,0,0,1,1,.809,1.988,1.988,0,0,1,.324,1.152,2.163,2.163,0,0,1-.906,1.816,3.8,3.8,0,0,1-2.352.684,4.257,4.257,0,0,1-1.8-.359,2.922,2.922,0,0,1-1.223-1A2.42,2.42,0,0,1,55.62,70.4h1.445a1.5,1.5,0,0,0,.582,1.152,2.258,2.258,0,0,0,1.434.426,2.331,2.331,0,0,0,1.316-.332A1.02,1.02,0,0,0,60.894,70.758Zm10.8,2.4a3.693,3.693,0,0,1-2.8-1.129,4.19,4.19,0,0,1-1.078-3.02v-.266A5.073,5.073,0,0,1,68.3,66.5a3.748,3.748,0,0,1,1.344-1.547,3.378,3.378,0,0,1,1.871-.559,3.166,3.166,0,0,1,2.563,1.086,4.7,4.7,0,0,1,.914,3.109v.6H69.261a3,3,0,0,0,.73,2.02,2.3,2.3,0,0,0,1.777.77,2.517,2.517,0,0,0,1.3-.312,3.259,3.259,0,0,0,.93-.828l.883.688A3.55,3.55,0,0,1,71.691,73.156Zm-.18-7.578a1.928,1.928,0,0,0-1.469.637A3.1,3.1,0,0,0,69.308,68h4.234v-.109a2.753,2.753,0,0,0-.594-1.707A1.815,1.815,0,0,0,71.511,65.578ZM79.5,67.633l1.875-3.086h1.688l-2.766,4.18L83.144,73H81.472l-1.953-3.164L77.566,73h-1.68l2.852-4.273-2.766-4.18h1.672ZM91.73,68.867a5.062,5.062,0,0,1-.883,3.109,2.829,2.829,0,0,1-2.391,1.18,3.1,3.1,0,0,1-2.422-.977v4.07H84.589v-11.7h1.32l.07.938a2.977,2.977,0,0,1,2.453-1.094,2.882,2.882,0,0,1,2.41,1.148,5.117,5.117,0,0,1,.887,3.2ZM90.284,68.7a3.735,3.735,0,0,0-.609-2.258A1.963,1.963,0,0,0,88,65.617a2.125,2.125,0,0,0-1.969,1.164V70.82a2.129,2.129,0,0,0,1.984,1.156,1.954,1.954,0,0,0,1.652-.824A4.077,4.077,0,0,0,90.284,68.7Zm6.789,4.453a3.693,3.693,0,0,1-2.8-1.129,4.19,4.19,0,0,1-1.078-3.02v-.266a5.073,5.073,0,0,1,.48-2.246,3.748,3.748,0,0,1,1.344-1.547,3.378,3.378,0,0,1,1.871-.559,3.166,3.166,0,0,1,2.563,1.086,4.7,4.7,0,0,1,.914,3.109v.6H94.644a3,3,0,0,0,.73,2.02,2.3,2.3,0,0,0,1.777.77,2.517,2.517,0,0,0,1.3-.312,3.259,3.259,0,0,0,.93-.828l.883.688A3.55,3.55,0,0,1,97.074,73.156Zm-.18-7.578a1.928,1.928,0,0,0-1.469.637A3.1,3.1,0,0,0,94.691,68h4.234v-.109a2.753,2.753,0,0,0-.594-1.707A1.815,1.815,0,0,0,96.894,65.578Zm8.539,6.4a2.082,2.082,0,0,0,1.352-.469,1.649,1.649,0,0,0,.641-1.172h1.367a2.621,2.621,0,0,1-.5,1.383,3.293,3.293,0,0,1-1.23,1.047,3.55,3.55,0,0,1-1.629.391A3.482,3.482,0,0,1,102.687,72a4.59,4.59,0,0,1-1.02-3.152v-.242a5.089,5.089,0,0,1,.453-2.2,3.451,3.451,0,0,1,1.3-1.492,3.7,3.7,0,0,1,2-.531,3.39,3.39,0,0,1,2.363.852,3.043,3.043,0,0,1,1,2.211h-1.367a1.992,1.992,0,0,0-.621-1.348,1.932,1.932,0,0,0-1.379-.527,2.023,2.023,0,0,0-1.707.793,3.724,3.724,0,0,0-.605,2.293v.273a3.65,3.65,0,0,0,.6,2.25A2.033,2.033,0,0,0,105.433,71.977Zm6.945-9.477v2.047h1.578v1.117h-1.578v5.242a1.171,1.171,0,0,0,.211.762.888.888,0,0,0,.719.254,3.5,3.5,0,0,0,.688-.094V73a4.19,4.19,0,0,1-1.109.156,1.8,1.8,0,0,1-1.461-.586,2.517,2.517,0,0,1-.492-1.664V65.664h-1.539V64.547h1.539V62.5ZM120.863,73a3.036,3.036,0,0,1-.2-.891,3.225,3.225,0,0,1-2.406,1.047,2.984,2.984,0,0,1-2.051-.707,2.287,2.287,0,0,1-.8-1.793,2.39,2.39,0,0,1,1-2.051,4.733,4.733,0,0,1,2.824-.73h1.406v-.664A1.623,1.623,0,0,0,120.183,66a1.821,1.821,0,0,0-1.336-.449,2.108,2.108,0,0,0-1.3.391,1.151,1.151,0,0,0-.523.945h-1.453a2,2,0,0,1,.449-1.223,3.066,3.066,0,0,1,1.219-.934,4.1,4.1,0,0,1,1.691-.344,3.342,3.342,0,0,1,2.289.73,2.635,2.635,0,0,1,.859,2.012v3.891a4.757,4.757,0,0,0,.3,1.852V73Zm-2.4-1.1a2.54,2.54,0,0,0,1.289-.352,2.127,2.127,0,0,0,.883-.914V68.9H119.5q-2.656,0-2.656,1.555a1.316,1.316,0,0,0,.453,1.063A1.742,1.742,0,0,0,118.464,71.9Zm7.844-9.4v2.047h1.578v1.117h-1.578v5.242a1.171,1.171,0,0,0,.211.762.888.888,0,0,0,.719.254,3.5,3.5,0,0,0,.688-.094V73a4.19,4.19,0,0,1-1.109.156,1.8,1.8,0,0,1-1.461-.586,2.517,2.517,0,0,1-.492-1.664V65.664h-1.539V64.547h1.539V62.5ZM131.144,73H129.7V64.547h1.445Zm-1.562-10.7a.863.863,0,0,1,.215-.594.807.807,0,0,1,.637-.242.819.819,0,0,1,.641.242.854.854,0,0,1,.219.594.826.826,0,0,1-.219.586.834.834,0,0,1-.641.234.821.821,0,0,1-.637-.234A.834.834,0,0,1,129.581,62.3Zm6.664,8.734,2.094-6.492h1.477L136.784,73h-1.1l-3.062-8.453H134.1ZM146.308,73a3.036,3.036,0,0,1-.2-.891,3.225,3.225,0,0,1-2.406,1.047,2.984,2.984,0,0,1-2.051-.707,2.287,2.287,0,0,1-.8-1.793,2.39,2.39,0,0,1,1-2.051,4.733,4.733,0,0,1,2.824-.73h1.406v-.664A1.623,1.623,0,0,0,145.628,66a1.821,1.821,0,0,0-1.336-.449,2.108,2.108,0,0,0-1.3.391,1.151,1.151,0,0,0-.523.945h-1.453a2,2,0,0,1,.449-1.223,3.066,3.066,0,0,1,1.219-.934,4.1,4.1,0,0,1,1.691-.344,3.342,3.342,0,0,1,2.289.73,2.635,2.635,0,0,1,.859,2.012v3.891a4.757,4.757,0,0,0,.3,1.852V73Zm-2.4-1.1a2.54,2.54,0,0,0,1.289-.352,2.127,2.127,0,0,0,.883-.914V68.9h-1.133q-2.656,0-2.656,1.555a1.316,1.316,0,0,0,.453,1.063A1.742,1.742,0,0,0,143.909,71.9Zm10.8-1.141a1.064,1.064,0,0,0-.441-.91,4.249,4.249,0,0,0-1.539-.559,7.277,7.277,0,0,1-1.742-.562,2.479,2.479,0,0,1-.953-.781,1.869,1.869,0,0,1-.309-1.078,2.193,2.193,0,0,1,.879-1.758,3.432,3.432,0,0,1,2.246-.719,3.532,3.532,0,0,1,2.332.742,2.357,2.357,0,0,1,.895,1.9h-1.453a1.3,1.3,0,0,0-.5-1.023,1.888,1.888,0,0,0-1.27-.43,1.976,1.976,0,0,0-1.234.344,1.082,1.082,0,0,0-.445.9.877.877,0,0,0,.414.789,5.1,5.1,0,0,0,1.5.508,7.8,7.8,0,0,1,1.754.578,2.558,2.558,0,0,1,1,.809,1.988,1.988,0,0,1,.324,1.152,2.163,2.163,0,0,1-.906,1.816,3.8,3.8,0,0,1-2.352.684,4.257,4.257,0,0,1-1.8-.359,2.922,2.922,0,0,1-1.223-1,2.42,2.42,0,0,1-.441-1.395h1.445a1.5,1.5,0,0,0,.582,1.152,2.258,2.258,0,0,0,1.434.426,2.331,2.331,0,0,0,1.316-.332A1.02,1.02,0,0,0,154.714,70.758Zm3.359,1.484a.905.905,0,0,1,.223-.625.848.848,0,0,1,.668-.25.874.874,0,0,1,.676.25.887.887,0,0,1,.23.625.839.839,0,0,1-.23.6.89.89,0,0,1-.676.242.8.8,0,0,1-.891-.844Z" transform="translate(574.235 1513.662)" fill="#12263f"/><path d="M57.327,19V6.2h3.938a5.98,5.98,0,0,1,3.019.76,5.3,5.3,0,0,1,2.079,2.162,6.669,6.669,0,0,1,.747,3.186V12.9a6.688,6.688,0,0,1-.734,3.173,5.256,5.256,0,0,1-2.07,2.153A6.025,6.025,0,0,1,61.291,19ZM59.964,8.339v8.543h1.274A2.863,2.863,0,0,0,63.6,15.871a4.567,4.567,0,0,0,.835-2.892V12.3a4.64,4.64,0,0,0-.809-2.958,2.854,2.854,0,0,0-2.364-1.006ZM71.539,19H68.99V9.49h2.549Zm-2.7-11.971a1.251,1.251,0,0,1,.382-.94,1.648,1.648,0,0,1,2.079,0,1.244,1.244,0,0,1,.387.94,1.247,1.247,0,0,1-.391.949,1.629,1.629,0,0,1-2.065,0A1.247,1.247,0,0,1,68.841,7.029Zm9.94,9.343a.818.818,0,0,0-.461-.734,5.241,5.241,0,0,0-1.481-.479q-3.393-.712-3.393-2.883a2.613,2.613,0,0,1,1.05-2.114,4.237,4.237,0,0,1,2.747-.848,4.56,4.56,0,0,1,2.9.853,2.687,2.687,0,0,1,1.085,2.215h-2.54a1.229,1.229,0,0,0-.352-.9,1.488,1.488,0,0,0-1.1-.356,1.52,1.52,0,0,0-.993.29.916.916,0,0,0-.352.738.783.783,0,0,0,.4.681,4.114,4.114,0,0,0,1.349.448,11.019,11.019,0,0,1,1.6.426,2.628,2.628,0,0,1,2.013,2.558,2.481,2.481,0,0,1-1.116,2.1,4.815,4.815,0,0,1-2.883.8,5.029,5.029,0,0,1-2.123-.426,3.561,3.561,0,0,1-1.455-1.169,2.716,2.716,0,0,1-.527-1.6h2.408a1.326,1.326,0,0,0,.5,1.037,1.987,1.987,0,0,0,1.248.36,1.839,1.839,0,0,0,1.1-.277A.861.861,0,0,0,78.781,16.372Zm8.481,2.8a4.668,4.668,0,0,1-3.406-1.283,4.561,4.561,0,0,1-1.314-3.419v-.246a5.745,5.745,0,0,1,.554-2.562,4.064,4.064,0,0,1,1.569-1.74,4.4,4.4,0,0,1,2.316-.611,3.947,3.947,0,0,1,3.072,1.23,5,5,0,0,1,1.121,3.489v1.037H85.118a2.36,2.36,0,0,0,.743,1.494,2.245,2.245,0,0,0,1.569.563,2.742,2.742,0,0,0,2.294-1.063l1.248,1.4a3.813,3.813,0,0,1-1.547,1.261A5.075,5.075,0,0,1,87.263,19.176Zm-.29-7.8a1.591,1.591,0,0,0-1.226.51,2.634,2.634,0,0,0-.6,1.459h3.533v-.2a1.878,1.878,0,0,0-.457-1.305A1.642,1.642,0,0,0,86.972,11.371Zm7.98-1.881.079,1.1a3.32,3.32,0,0,1,2.733-1.274,2.759,2.759,0,0,1,2.25.888,4.142,4.142,0,0,1,.756,2.654V19h-2.54V12.918a1.648,1.648,0,0,0-.352-1.173,1.574,1.574,0,0,0-1.169-.365,1.747,1.747,0,0,0-1.608.914V19h-2.54V9.49ZM100,5.614a2.46,2.46,0,0,1-.58,1.666A1.8,1.8,0,0,1,98,7.952a2.146,2.146,0,0,1-.593-.075,3.981,3.981,0,0,1-.716-.321,3.864,3.864,0,0,0-.659-.3,1.611,1.611,0,0,0-.439-.057.7.7,0,0,0-.523.22.854.854,0,0,0-.215.624L93.38,7.952a2.5,2.5,0,0,1,.576-1.661,1.776,1.776,0,0,1,1.411-.686,1.816,1.816,0,0,1,.5.066,5.468,5.468,0,0,1,.76.321,4.941,4.941,0,0,0,.729.308,1.665,1.665,0,0,0,.422.053.741.741,0,0,0,.532-.215.819.819,0,0,0,.224-.62Zm2.3,8.543a5.64,5.64,0,0,1,.545-2.522,3.989,3.989,0,0,1,1.569-1.714,4.577,4.577,0,0,1,2.377-.606,4.33,4.33,0,0,1,3.142,1.178,4.727,4.727,0,0,1,1.358,3.2l.018.65a4.97,4.97,0,0,1-1.222,3.511,4.735,4.735,0,0,1-6.561,0,5.058,5.058,0,0,1-1.226-3.586Zm2.54.185a3.545,3.545,0,0,0,.51,2.07,1.833,1.833,0,0,0,2.9.009,3.879,3.879,0,0,0,.519-2.263,3.51,3.51,0,0,0-.519-2.057,1.686,1.686,0,0,0-1.459-.729,1.659,1.659,0,0,0-1.441.725A3.944,3.944,0,0,0,104.841,14.342ZM113,17.752a1.279,1.279,0,0,1,.409-.984,1.588,1.588,0,0,1,2.057,0,1.279,1.279,0,0,1,.409.984,1.261,1.261,0,0,1-.4.971,1.614,1.614,0,0,1-2.065,0A1.261,1.261,0,0,1,113,17.752Zm0-7.2a1.279,1.279,0,0,1,.409-.984,1.588,1.588,0,0,1,2.057,0,1.279,1.279,0,0,1,.409.984,1.261,1.261,0,0,1-.4.971,1.614,1.614,0,0,1-2.065,0A1.261,1.261,0,0,1,113,10.554ZM54.351,55a3.036,3.036,0,0,1-.2-.891,3.225,3.225,0,0,1-2.406,1.047,2.984,2.984,0,0,1-2.051-.707,2.287,2.287,0,0,1-.8-1.793,2.39,2.39,0,0,1,1-2.051,4.733,4.733,0,0,1,2.824-.73h1.406v-.664A1.623,1.623,0,0,0,53.671,48a1.821,1.821,0,0,0-1.336-.449,2.107,2.107,0,0,0-1.3.391,1.151,1.151,0,0,0-.523.945H49.062a2,2,0,0,1,.449-1.223,3.066,3.066,0,0,1,1.219-.934,4.1,4.1,0,0,1,1.691-.344,3.342,3.342,0,0,1,2.289.73,2.635,2.635,0,0,1,.859,2.012v3.891a4.757,4.757,0,0,0,.3,1.852V55Zm-2.4-1.1a2.54,2.54,0,0,0,1.289-.352,2.127,2.127,0,0,0,.883-.914V50.9H52.992q-2.656,0-2.656,1.555a1.316,1.316,0,0,0,.453,1.063A1.742,1.742,0,0,0,51.952,53.9Zm13.023-3.031a5.062,5.062,0,0,1-.883,3.109,2.829,2.829,0,0,1-2.391,1.18,3.1,3.1,0,0,1-2.422-.977v4.07H57.835v-11.7h1.32l.07.938a2.977,2.977,0,0,1,2.453-1.094,2.882,2.882,0,0,1,2.41,1.148,5.117,5.117,0,0,1,.887,3.2ZM63.531,50.7a3.735,3.735,0,0,0-.609-2.258,1.963,1.963,0,0,0-1.672-.828,2.125,2.125,0,0,0-1.969,1.164V52.82a2.129,2.129,0,0,0,1.984,1.156,1.954,1.954,0,0,0,1.652-.824A4.077,4.077,0,0,0,63.531,50.7Zm8.5,4.3a3.036,3.036,0,0,1-.2-.891,3.225,3.225,0,0,1-2.406,1.047,2.984,2.984,0,0,1-2.051-.707,2.288,2.288,0,0,1-.8-1.793,2.39,2.39,0,0,1,1-2.051,4.733,4.733,0,0,1,2.824-.73H71.8v-.664A1.623,1.623,0,0,0,71.351,48a1.821,1.821,0,0,0-1.336-.449,2.107,2.107,0,0,0-1.3.391,1.151,1.151,0,0,0-.523.945H66.742a2,2,0,0,1,.449-1.223,3.066,3.066,0,0,1,1.219-.934,4.1,4.1,0,0,1,1.691-.344,3.342,3.342,0,0,1,2.289.73,2.635,2.635,0,0,1,.859,2.012v3.891a4.757,4.757,0,0,0,.3,1.852V55Zm-2.4-1.1a2.54,2.54,0,0,0,1.289-.352,2.127,2.127,0,0,0,.883-.914V50.9H70.671q-2.656,0-2.656,1.555a1.316,1.316,0,0,0,.453,1.063A1.742,1.742,0,0,0,69.632,53.9ZM79.6,47.844a4.331,4.331,0,0,0-.711-.055A1.9,1.9,0,0,0,76.96,49v6H75.515V46.547h1.406l.023.977a2.251,2.251,0,0,1,2.016-1.133,1.477,1.477,0,0,1,.641.109ZM82.5,55H81.054V46.547H82.5ZM80.937,44.3a.863.863,0,0,1,.215-.594.807.807,0,0,1,.637-.242.819.819,0,0,1,.641.242.854.854,0,0,1,.219.594.826.826,0,0,1-.219.586.834.834,0,0,1-.641.234.821.821,0,0,1-.637-.234A.834.834,0,0,1,80.937,44.3ZM88.32,55.156a3.693,3.693,0,0,1-2.8-1.129,4.19,4.19,0,0,1-1.078-3.02v-.266a5.073,5.073,0,0,1,.48-2.246,3.748,3.748,0,0,1,1.344-1.547,3.378,3.378,0,0,1,1.871-.559A3.166,3.166,0,0,1,90.7,47.477a4.7,4.7,0,0,1,.914,3.109v.6H85.89a3,3,0,0,0,.73,2.02,2.3,2.3,0,0,0,1.777.77,2.517,2.517,0,0,0,1.3-.312,3.259,3.259,0,0,0,.93-.828l.883.688A3.55,3.55,0,0,1,88.32,55.156Zm-.18-7.578a1.928,1.928,0,0,0-1.469.637A3.1,3.1,0,0,0,85.937,50h4.234v-.109a2.753,2.753,0,0,0-.594-1.707A1.815,1.815,0,0,0,88.14,47.578Zm6.516-1.031.047,1.063a3.08,3.08,0,0,1,2.531-1.219q2.68,0,2.7,3.023V55H98.492V49.406a1.946,1.946,0,0,0-.418-1.352,1.675,1.675,0,0,0-1.277-.437,2.086,2.086,0,0,0-1.234.375,2.546,2.546,0,0,0-.828.984V55H93.288V46.547Zm10.852,7.43a2.082,2.082,0,0,0,1.352-.469,1.649,1.649,0,0,0,.641-1.172h1.367a2.621,2.621,0,0,1-.5,1.383,3.293,3.293,0,0,1-1.23,1.047,3.55,3.55,0,0,1-1.629.391A3.482,3.482,0,0,1,102.761,54a4.59,4.59,0,0,1-1.02-3.152v-.242a5.089,5.089,0,0,1,.453-2.2,3.451,3.451,0,0,1,1.3-1.492,3.7,3.7,0,0,1,2-.531,3.39,3.39,0,0,1,2.363.852,3.043,3.043,0,0,1,1,2.211H107.5a1.992,1.992,0,0,0-.621-1.348,1.932,1.932,0,0,0-1.379-.527,2.023,2.023,0,0,0-1.707.793,3.724,3.724,0,0,0-.605,2.293v.273a3.65,3.65,0,0,0,.6,2.25A2.033,2.033,0,0,0,105.507,53.977ZM112.062,55h-1.445V46.547h1.445ZM110.5,44.3a.863.863,0,0,1,.215-.594.807.807,0,0,1,.637-.242.819.819,0,0,1,.641.242.854.854,0,0,1,.219.594.826.826,0,0,1-.219.586.834.834,0,0,1-.641.234.821.821,0,0,1-.637-.234A.834.834,0,0,1,110.5,44.3ZM119.593,55a3.036,3.036,0,0,1-.2-.891,3.225,3.225,0,0,1-2.406,1.047,2.984,2.984,0,0,1-2.051-.707,2.288,2.288,0,0,1-.8-1.793,2.39,2.39,0,0,1,1-2.051,4.733,4.733,0,0,1,2.824-.73h1.406v-.664A1.623,1.623,0,0,0,118.913,48a1.821,1.821,0,0,0-1.336-.449,2.107,2.107,0,0,0-1.3.391,1.151,1.151,0,0,0-.523.945H114.3a2,2,0,0,1,.449-1.223,3.066,3.066,0,0,1,1.219-.934,4.1,4.1,0,0,1,1.691-.344,3.342,3.342,0,0,1,2.289.73,2.635,2.635,0,0,1,.859,2.012v3.891a4.757,4.757,0,0,0,.3,1.852V55Zm-2.4-1.1a2.54,2.54,0,0,0,1.289-.352,2.127,2.127,0,0,0,.883-.914V50.9h-1.133q-2.656,0-2.656,1.555a1.316,1.316,0,0,0,.453,1.063A1.742,1.742,0,0,0,117.195,53.9Zm5.836,3.367-.82-.562a3.77,3.77,0,0,0,.766-2.109v-1.3h1.414v1.133A3.559,3.559,0,0,1,124,56,3.7,3.7,0,0,1,123.031,57.266ZM1.808,73V65.664H.472V64.547H1.808V63.68a2.878,2.878,0,0,1,.727-2.1,2.745,2.745,0,0,1,2.055-.742,3.793,3.793,0,0,1,.992.133L5.5,62.141a4.151,4.151,0,0,0-.781-.07,1.413,1.413,0,0,0-1.086.41,1.66,1.66,0,0,0-.383,1.176v.891h1.8v1.117h-1.8V73Zm10.063-.836a3.07,3.07,0,0,1-2.477.992,2.628,2.628,0,0,1-2.059-.785,3.4,3.4,0,0,1-.715-2.324v-5.5H8.066v5.461q0,1.922,1.563,1.922a2.163,2.163,0,0,0,2.2-1.234V64.547h1.445V73H11.9Zm4.969-7.617.047,1.063a3.08,3.08,0,0,1,2.531-1.219q2.68,0,2.7,3.023V73H20.675V67.406a1.946,1.946,0,0,0-.418-1.352,1.675,1.675,0,0,0-1.277-.437,2.086,2.086,0,0,0-1.234.375,2.546,2.546,0,0,0-.828.984V73H15.472V64.547Zm10.852,7.43a2.082,2.082,0,0,0,1.352-.469,1.649,1.649,0,0,0,.641-1.172H31.05a2.621,2.621,0,0,1-.5,1.383,3.293,3.293,0,0,1-1.23,1.047,3.55,3.55,0,0,1-1.629.391A3.482,3.482,0,0,1,24.945,72a4.59,4.59,0,0,1-1.02-3.152v-.242a5.089,5.089,0,0,1,.453-2.2,3.451,3.451,0,0,1,1.3-1.492,3.7,3.7,0,0,1,2-.531,3.39,3.39,0,0,1,2.363.852,3.043,3.043,0,0,1,1,2.211H29.683a1.992,1.992,0,0,0-.621-1.348,1.932,1.932,0,0,0-1.379-.527,2.023,2.023,0,0,0-1.707.793,3.724,3.724,0,0,0-.605,2.293v.273a3.65,3.65,0,0,0,.6,2.25A2.033,2.033,0,0,0,27.691,71.977ZM34.245,73H32.8V64.547h1.445ZM32.683,62.3a.863.863,0,0,1,.215-.594.807.807,0,0,1,.637-.242.819.819,0,0,1,.641.242.854.854,0,0,1,.219.594.826.826,0,0,1-.219.586.834.834,0,0,1-.641.234.821.821,0,0,1-.637-.234A.834.834,0,0,1,32.683,62.3ZM36.175,68.7a4.993,4.993,0,0,1,.488-2.234,3.642,3.642,0,0,1,1.359-1.531,3.7,3.7,0,0,1,1.988-.539,3.565,3.565,0,0,1,2.793,1.2,4.6,4.6,0,0,1,1.066,3.18v.1a5.036,5.036,0,0,1-.473,2.215,3.589,3.589,0,0,1-1.352,1.527,3.743,3.743,0,0,1-2.02.547,3.556,3.556,0,0,1-2.785-1.2A4.575,4.575,0,0,1,36.175,68.8Zm1.453.172a3.616,3.616,0,0,0,.652,2.258,2.211,2.211,0,0,0,3.5-.012,3.955,3.955,0,0,0,.648-2.418,3.61,3.61,0,0,0-.66-2.254,2.1,2.1,0,0,0-1.754-.863,2.075,2.075,0,0,0-1.727.852A3.925,3.925,0,0,0,37.628,68.867Zm9.422-4.32.047,1.063a3.08,3.08,0,0,1,2.531-1.219q2.68,0,2.7,3.023V73H50.886V67.406a1.946,1.946,0,0,0-.418-1.352,1.675,1.675,0,0,0-1.277-.437,2.086,2.086,0,0,0-1.234.375,2.546,2.546,0,0,0-.828.984V73H45.683V64.547ZM59.73,73a3.036,3.036,0,0,1-.2-.891,3.225,3.225,0,0,1-2.406,1.047,2.984,2.984,0,0,1-2.051-.707,2.287,2.287,0,0,1-.8-1.793,2.39,2.39,0,0,1,1-2.051,4.733,4.733,0,0,1,2.824-.73H59.5v-.664A1.623,1.623,0,0,0,59.05,66a1.821,1.821,0,0,0-1.336-.449,2.108,2.108,0,0,0-1.3.391,1.151,1.151,0,0,0-.523.945H54.441a2,2,0,0,1,.449-1.223,3.066,3.066,0,0,1,1.219-.934,4.1,4.1,0,0,1,1.691-.344,3.342,3.342,0,0,1,2.289.73,2.635,2.635,0,0,1,.859,2.012v3.891a4.757,4.757,0,0,0,.3,1.852V73Zm-2.4-1.1a2.54,2.54,0,0,0,1.289-.352,2.127,2.127,0,0,0,.883-.914V68.9H58.37q-2.656,0-2.656,1.555a1.316,1.316,0,0,0,.453,1.063A1.742,1.742,0,0,0,57.331,71.9ZM64.784,73H63.339V61h1.445Zm3.883,0H67.222V64.547h1.445ZM67.1,62.3a.863.863,0,0,1,.215-.594.807.807,0,0,1,.637-.242.819.819,0,0,1,.641.242.854.854,0,0,1,.219.594.826.826,0,0,1-.219.586.834.834,0,0,1-.641.234.821.821,0,0,1-.637-.234A.834.834,0,0,1,67.1,62.3Zm3.523,6.4a4.952,4.952,0,0,1,.922-3.129,3.137,3.137,0,0,1,4.766-.168V61h1.445V73H76.433l-.07-.906a2.943,2.943,0,0,1-2.414,1.063,2.887,2.887,0,0,1-2.395-1.2,5.008,5.008,0,0,1-.926-3.141Zm1.445.164a3.749,3.749,0,0,0,.594,2.25,1.92,1.92,0,0,0,1.641.813A2.109,2.109,0,0,0,76.316,70.7V66.813a2.125,2.125,0,0,0-1.992-1.2,1.929,1.929,0,0,0-1.656.82A4.128,4.128,0,0,0,72.074,68.867ZM85.222,73a3.036,3.036,0,0,1-.2-.891,3.225,3.225,0,0,1-2.406,1.047,2.984,2.984,0,0,1-2.051-.707,2.287,2.287,0,0,1-.8-1.793,2.39,2.39,0,0,1,1-2.051,4.733,4.733,0,0,1,2.824-.73H85v-.664A1.623,1.623,0,0,0,84.542,66a1.821,1.821,0,0,0-1.336-.449,2.108,2.108,0,0,0-1.3.391,1.151,1.151,0,0,0-.523.945H79.933a2,2,0,0,1,.449-1.223,3.066,3.066,0,0,1,1.219-.934,4.1,4.1,0,0,1,1.691-.344,3.342,3.342,0,0,1,2.289.73,2.635,2.635,0,0,1,.859,2.012v3.891a4.757,4.757,0,0,0,.3,1.852V73Zm-2.4-1.1a2.54,2.54,0,0,0,1.289-.352A2.127,2.127,0,0,0,85,70.633V68.9H83.863q-2.656,0-2.656,1.555a1.316,1.316,0,0,0,.453,1.063A1.742,1.742,0,0,0,82.824,71.9Zm5.531-3.2a4.952,4.952,0,0,1,.922-3.129,3.137,3.137,0,0,1,4.766-.168V61h1.445V73H94.159l-.07-.906a2.943,2.943,0,0,1-2.414,1.063,2.887,2.887,0,0,1-2.395-1.2,5.008,5.008,0,0,1-.926-3.141Zm1.445.164a3.749,3.749,0,0,0,.594,2.25,1.92,1.92,0,0,0,1.641.813A2.109,2.109,0,0,0,94.042,70.7V66.813a2.125,2.125,0,0,0-1.992-1.2,1.929,1.929,0,0,0-1.656.82A4.128,4.128,0,0,0,89.8,68.867Zm14.656,2.016,1.969-6.336h1.547l-3.4,9.758q-.789,2.109-2.508,2.109l-.273-.023-.539-.1V75.117l.391.031a1.923,1.923,0,0,0,1.145-.3,2.149,2.149,0,0,0,.676-1.086l.32-.859-3.016-8.359h1.578ZM113.933,73V65.664H112.6V64.547h1.336V63.68a2.878,2.878,0,0,1,.727-2.1,2.745,2.745,0,0,1,2.055-.742,3.793,3.793,0,0,1,.992.133l-.078,1.172a4.151,4.151,0,0,0-.781-.07,1.413,1.413,0,0,0-1.086.41,1.66,1.66,0,0,0-.383,1.176v.891h1.8v1.117h-1.8V73ZM124,73a3.036,3.036,0,0,1-.2-.891,3.225,3.225,0,0,1-2.406,1.047,2.984,2.984,0,0,1-2.051-.707,2.287,2.287,0,0,1-.8-1.793,2.39,2.39,0,0,1,1-2.051,4.733,4.733,0,0,1,2.824-.73h1.406v-.664A1.623,1.623,0,0,0,123.316,66a1.821,1.821,0,0,0-1.336-.449,2.108,2.108,0,0,0-1.3.391,1.151,1.151,0,0,0-.523.945h-1.453a2,2,0,0,1,.449-1.223,3.066,3.066,0,0,1,1.219-.934,4.1,4.1,0,0,1,1.691-.344,3.342,3.342,0,0,1,2.289.73,2.635,2.635,0,0,1,.859,2.012v3.891a4.757,4.757,0,0,0,.3,1.852V73Zm-2.4-1.1a2.54,2.54,0,0,0,1.289-.352,2.127,2.127,0,0,0,.883-.914V68.9h-1.133q-2.656,0-2.656,1.555a1.316,1.316,0,0,0,.453,1.063A1.742,1.742,0,0,0,121.6,71.9Zm9.273.078a2.082,2.082,0,0,0,1.352-.469,1.649,1.649,0,0,0,.641-1.172h1.367a2.621,2.621,0,0,1-.5,1.383,3.293,3.293,0,0,1-1.23,1.047,3.55,3.55,0,0,1-1.629.391A3.482,3.482,0,0,1,128.124,72a4.59,4.59,0,0,1-1.02-3.152v-.242a5.089,5.089,0,0,1,.453-2.2,3.451,3.451,0,0,1,1.3-1.492,3.7,3.7,0,0,1,2-.531,3.39,3.39,0,0,1,2.363.852,3.043,3.043,0,0,1,1,2.211h-1.367a1.992,1.992,0,0,0-.621-1.348,1.932,1.932,0,0,0-1.379-.527,2.023,2.023,0,0,0-1.707.793,3.724,3.724,0,0,0-.605,2.293v.273a3.65,3.65,0,0,0,.6,2.25A2.033,2.033,0,0,0,130.87,71.977ZM137.425,73H135.98V64.547h1.445Zm-1.562-10.7a.863.863,0,0,1,.215-.594.807.807,0,0,1,.637-.242.819.819,0,0,1,.641.242.854.854,0,0,1,.219.594.826.826,0,0,1-.219.586.834.834,0,0,1-.641.234.821.821,0,0,1-.637-.234A.834.834,0,0,1,135.863,62.3ZM141.308,73h-1.445V61h1.445Zm3.883,0h-1.445V64.547h1.445Zm-1.562-10.7a.863.863,0,0,1,.215-.594.807.807,0,0,1,.637-.242.819.819,0,0,1,.641.242.854.854,0,0,1,.219.594.826.826,0,0,1-.219.586.834.834,0,0,1-.641.234.821.821,0,0,1-.637-.234A.834.834,0,0,1,143.628,62.3Zm3.523,6.4a4.952,4.952,0,0,1,.922-3.129,3.137,3.137,0,0,1,4.766-.168V61h1.445V73h-1.328l-.07-.906a2.943,2.943,0,0,1-2.414,1.063,2.887,2.887,0,0,1-2.395-1.2,5.008,5.008,0,0,1-.926-3.141Zm1.445.164a3.749,3.749,0,0,0,.594,2.25,1.919,1.919,0,0,0,1.641.813,2.108,2.108,0,0,0,2.008-1.234V66.813a2.125,2.125,0,0,0-1.992-1.2,1.929,1.929,0,0,0-1.656.82A4.128,4.128,0,0,0,148.6,68.867ZM161.745,73a3.036,3.036,0,0,1-.2-.891,3.225,3.225,0,0,1-2.406,1.047,2.984,2.984,0,0,1-2.051-.707,2.287,2.287,0,0,1-.8-1.793,2.39,2.39,0,0,1,1-2.051,4.733,4.733,0,0,1,2.824-.73h1.406v-.664A1.623,1.623,0,0,0,161.066,66a1.821,1.821,0,0,0-1.336-.449,2.108,2.108,0,0,0-1.3.391,1.151,1.151,0,0,0-.523.945h-1.453a2,2,0,0,1,.449-1.223,3.066,3.066,0,0,1,1.219-.934,4.1,4.1,0,0,1,1.691-.344,3.342,3.342,0,0,1,2.289.73,2.635,2.635,0,0,1,.859,2.012v3.891a4.757,4.757,0,0,0,.3,1.852V73Zm-2.4-1.1a2.54,2.54,0,0,0,1.289-.352,2.127,2.127,0,0,0,.883-.914V68.9h-1.133q-2.656,0-2.656,1.555a1.316,1.316,0,0,0,.453,1.063A1.742,1.742,0,0,0,159.347,71.9Zm5.531-3.2a4.952,4.952,0,0,1,.922-3.129,3.137,3.137,0,0,1,4.766-.168V61h1.445V73h-1.328l-.07-.906a2.943,2.943,0,0,1-2.414,1.063,2.887,2.887,0,0,1-2.395-1.2,5.008,5.008,0,0,1-.926-3.141Zm1.445.164a3.749,3.749,0,0,0,.594,2.25,1.919,1.919,0,0,0,1.641.813,2.108,2.108,0,0,0,2.008-1.234V66.813a2.125,2.125,0,0,0-1.992-1.2,1.929,1.929,0,0,0-1.656.82A4.128,4.128,0,0,0,166.324,68.867ZM61.39,86.7a4.952,4.952,0,0,1,.922-3.129,3.137,3.137,0,0,1,4.766-.168V79h1.445V91H67.195l-.07-.906a2.943,2.943,0,0,1-2.414,1.063,2.887,2.887,0,0,1-2.395-1.2,5.008,5.008,0,0,1-.926-3.141Zm1.445.164a3.749,3.749,0,0,0,.594,2.25,1.92,1.92,0,0,0,1.641.813A2.109,2.109,0,0,0,67.077,88.7V84.813a2.125,2.125,0,0,0-1.992-1.2,1.929,1.929,0,0,0-1.656.82A4.128,4.128,0,0,0,62.835,86.867Zm11.438,4.289a3.693,3.693,0,0,1-2.8-1.129,4.19,4.19,0,0,1-1.078-3.02v-.266a5.073,5.073,0,0,1,.48-2.246,3.748,3.748,0,0,1,1.344-1.547,3.378,3.378,0,0,1,1.871-.559,3.166,3.166,0,0,1,2.563,1.086,4.7,4.7,0,0,1,.914,3.109v.6H71.843a3,3,0,0,0,.73,2.02,2.3,2.3,0,0,0,1.777.77,2.517,2.517,0,0,0,1.3-.312,3.259,3.259,0,0,0,.93-.828l.883.688A3.55,3.55,0,0,1,74.273,91.156Zm-.18-7.578a1.928,1.928,0,0,0-1.469.637A3.1,3.1,0,0,0,71.89,86h4.234v-.109a2.753,2.753,0,0,0-.594-1.707A1.815,1.815,0,0,0,74.093,83.578Zm14.328,6.586a3.07,3.07,0,0,1-2.477.992,2.628,2.628,0,0,1-2.059-.785,3.4,3.4,0,0,1-.715-2.324v-5.5h1.445v5.461q0,1.922,1.563,1.922a2.163,2.163,0,0,0,2.2-1.234V82.547h1.445V91H88.452Zm8.523-1.406a1.064,1.064,0,0,0-.441-.91,4.249,4.249,0,0,0-1.539-.559,7.277,7.277,0,0,1-1.742-.562,2.478,2.478,0,0,1-.953-.781,1.869,1.869,0,0,1-.309-1.078,2.193,2.193,0,0,1,.879-1.758,3.432,3.432,0,0,1,2.246-.719,3.532,3.532,0,0,1,2.332.742,2.357,2.357,0,0,1,.895,1.9H96.859a1.3,1.3,0,0,0-.5-1.023,1.888,1.888,0,0,0-1.27-.43,1.976,1.976,0,0,0-1.234.344,1.082,1.082,0,0,0-.445.9.877.877,0,0,0,.414.789,5.1,5.1,0,0,0,1.5.508,7.8,7.8,0,0,1,1.754.578,2.559,2.559,0,0,1,1,.809,1.988,1.988,0,0,1,.324,1.152,2.163,2.163,0,0,1-.906,1.816,3.8,3.8,0,0,1-2.352.684,4.257,4.257,0,0,1-1.8-.359,2.922,2.922,0,0,1-1.223-1,2.42,2.42,0,0,1-.441-1.395h1.445a1.5,1.5,0,0,0,.582,1.152,2.258,2.258,0,0,0,1.434.426,2.331,2.331,0,0,0,1.316-.332A1.02,1.02,0,0,0,96.945,88.758ZM99.89,86.7a4.993,4.993,0,0,1,.488-2.234,3.643,3.643,0,0,1,1.359-1.531,3.7,3.7,0,0,1,1.988-.539,3.565,3.565,0,0,1,2.793,1.2,4.6,4.6,0,0,1,1.066,3.18v.1a5.036,5.036,0,0,1-.473,2.215,3.589,3.589,0,0,1-1.352,1.527,3.743,3.743,0,0,1-2.02.547,3.556,3.556,0,0,1-2.785-1.2A4.575,4.575,0,0,1,99.89,86.8Zm1.453.172A3.616,3.616,0,0,0,102,89.125a2.211,2.211,0,0,0,3.5-.012,3.955,3.955,0,0,0,.648-2.418,3.61,3.61,0,0,0-.66-2.254,2.1,2.1,0,0,0-1.754-.863A2.075,2.075,0,0,0,102,84.43,3.925,3.925,0,0,0,101.343,86.867Zm8.086,3.375a.905.905,0,0,1,.223-.625.848.848,0,0,1,.668-.25.874.874,0,0,1,.676.25.887.887,0,0,1,.23.625.839.839,0,0,1-.23.6.89.89,0,0,1-.676.242.8.8,0,0,1-.891-.844Z" transform="translate(575.146 1795.37)" fill="#12263f"/><path d="M36.2,13.771H31.136V19H28.5V6.2h8.332V8.339h-5.7v3.3H36.2Zm7.5,4.263a3.185,3.185,0,0,1-2.6,1.143A3,3,0,0,1,38.76,18.3a3.752,3.752,0,0,1-.822-2.575V9.49h2.54v6.144q0,1.485,1.354,1.485a1.835,1.835,0,0,0,1.775-.9V9.49h2.549V19H43.765ZM50.41,9.49l.079,1.1a3.32,3.32,0,0,1,2.733-1.274,2.759,2.759,0,0,1,2.25.888,4.142,4.142,0,0,1,.756,2.654V19h-2.54V12.918a1.648,1.648,0,0,0-.352-1.173,1.574,1.574,0,0,0-1.169-.365,1.747,1.747,0,0,0-1.608.914V19h-2.54V9.49Zm11.7,7.638a1.666,1.666,0,0,0,1.143-.387,1.355,1.355,0,0,0,.457-1.028H66.09a3.258,3.258,0,0,1-.527,1.771,3.48,3.48,0,0,1-1.419,1.248,4.442,4.442,0,0,1-1.991.444,4.129,4.129,0,0,1-3.217-1.3A5.13,5.13,0,0,1,57.758,14.3v-.167a5.071,5.071,0,0,1,1.169-3.507,4.08,4.08,0,0,1,3.208-1.31A4,4,0,0,1,65,10.33a3.594,3.594,0,0,1,1.094,2.7H63.708a1.731,1.731,0,0,0-.457-1.2,1.7,1.7,0,0,0-2.5.185,3.739,3.739,0,0,0-.453,2.1v.264a3.786,3.786,0,0,0,.448,2.109A1.55,1.55,0,0,0,62.108,17.128ZM70.221,19H67.672V9.49h2.549Zm-2.7-11.971a1.251,1.251,0,0,1,.382-.94,1.648,1.648,0,0,1,2.079,0,1.244,1.244,0,0,1,.387.94,1.247,1.247,0,0,1-.391.949,1.629,1.629,0,0,1-2.065,0A1.247,1.247,0,0,1,67.522,7.029Zm4.395,7.128a5.64,5.64,0,0,1,.545-2.522,3.989,3.989,0,0,1,1.569-1.714,4.577,4.577,0,0,1,2.377-.606,4.33,4.33,0,0,1,3.142,1.178,4.727,4.727,0,0,1,1.358,3.2l.018.65A4.97,4.97,0,0,1,79.7,17.853a4.735,4.735,0,0,1-6.561,0,5.058,5.058,0,0,1-1.226-3.586Zm2.54.185a3.545,3.545,0,0,0,.51,2.07,1.833,1.833,0,0,0,2.9.009,3.879,3.879,0,0,0,.519-2.263,3.51,3.51,0,0,0-.519-2.057,1.686,1.686,0,0,0-1.459-.729,1.659,1.659,0,0,0-1.441.725A3.944,3.944,0,0,0,74.457,14.342ZM84.828,9.49l.079,1.1A3.32,3.32,0,0,1,87.64,9.314a2.759,2.759,0,0,1,2.25.888,4.142,4.142,0,0,1,.756,2.654V19h-2.54V12.918a1.648,1.648,0,0,0-.352-1.173,1.574,1.574,0,0,0-1.169-.365,1.747,1.747,0,0,0-1.608.914V19h-2.54V9.49ZM98.082,19a2.821,2.821,0,0,1-.255-.853,3.073,3.073,0,0,1-2.4,1.028,3.376,3.376,0,0,1-2.316-.809,2.6,2.6,0,0,1-.918-2.039,2.687,2.687,0,0,1,1.121-2.32,5.529,5.529,0,0,1,3.239-.817h1.169v-.545a1.567,1.567,0,0,0-.338-1.055,1.331,1.331,0,0,0-1.068-.4,1.513,1.513,0,0,0-1.006.308,1.045,1.045,0,0,0-.365.844H92.4a2.551,2.551,0,0,1,.51-1.529,3.37,3.37,0,0,1,1.441-1.1,5.253,5.253,0,0,1,2.092-.4,4.15,4.15,0,0,1,2.791.883,3.09,3.09,0,0,1,1.033,2.483V16.8a4.546,4.546,0,0,0,.378,2.048V19Zm-2.1-1.767a2.188,2.188,0,0,0,1.037-.25,1.645,1.645,0,0,0,.7-.672V14.676h-.949q-1.907,0-2.03,1.318l-.009.149a1.017,1.017,0,0,0,.334.782A1.3,1.3,0,0,0,95.981,17.233ZM104.9,19h-2.549V5.5H104.9Zm4.772,0h-2.549V9.49h2.549Zm-2.7-11.971a1.251,1.251,0,0,1,.382-.94,1.648,1.648,0,0,1,2.079,0,1.244,1.244,0,0,1,.387.94,1.247,1.247,0,0,1-.391.949,1.629,1.629,0,0,1-2.065,0A1.247,1.247,0,0,1,106.976,7.029Zm4.395,7.146a5.731,5.731,0,0,1,1-3.542A3.237,3.237,0,0,1,115.1,9.314a2.913,2.913,0,0,1,2.294,1.037V5.5h2.549V19h-2.294l-.123-1.011a2.989,2.989,0,0,1-2.443,1.187,3.228,3.228,0,0,1-2.694-1.323A5.916,5.916,0,0,1,111.371,14.175Zm2.54.185a3.744,3.744,0,0,0,.466,2.048,1.518,1.518,0,0,0,1.354.712,1.7,1.7,0,0,0,1.661-.993V12.373a1.676,1.676,0,0,0-1.644-.993Q113.911,11.38,113.911,14.359ZM127.42,19a2.821,2.821,0,0,1-.255-.853,3.073,3.073,0,0,1-2.4,1.028,3.376,3.376,0,0,1-2.316-.809,2.6,2.6,0,0,1-.918-2.039,2.687,2.687,0,0,1,1.121-2.32,5.529,5.529,0,0,1,3.239-.817h1.169v-.545a1.567,1.567,0,0,0-.338-1.055,1.331,1.331,0,0,0-1.068-.4,1.513,1.513,0,0,0-1.006.308,1.045,1.045,0,0,0-.365.844h-2.54a2.551,2.551,0,0,1,.51-1.529,3.37,3.37,0,0,1,1.441-1.1,5.253,5.253,0,0,1,2.092-.4,4.15,4.15,0,0,1,2.791.883,3.09,3.09,0,0,1,1.033,2.483V16.8a4.546,4.546,0,0,0,.378,2.048V19Zm-2.1-1.767a2.188,2.188,0,0,0,1.037-.25,1.645,1.645,0,0,0,.7-.672V14.676h-.949q-1.907,0-2.03,1.318l-.009.149a1.017,1.017,0,0,0,.334.782A1.3,1.3,0,0,0,125.319,17.233Zm5.845-3.059a5.731,5.731,0,0,1,1-3.542,3.237,3.237,0,0,1,2.729-1.318,2.913,2.913,0,0,1,2.294,1.037V5.5h2.549V19h-2.294l-.123-1.011a2.989,2.989,0,0,1-2.443,1.187,3.228,3.228,0,0,1-2.694-1.323A5.916,5.916,0,0,1,131.164,14.175Zm2.54.185a3.744,3.744,0,0,0,.466,2.048,1.518,1.518,0,0,0,1.354.712,1.7,1.7,0,0,0,1.661-.993V12.373a1.676,1.676,0,0,0-1.644-.993Q133.7,11.38,133.7,14.359Zm8.121,3.393a1.279,1.279,0,0,1,.409-.984,1.588,1.588,0,0,1,2.057,0,1.279,1.279,0,0,1,.409.984,1.261,1.261,0,0,1-.4.971,1.614,1.614,0,0,1-2.065,0A1.261,1.261,0,0,1,141.825,17.752Zm0-7.2a1.279,1.279,0,0,1,.409-.984,1.588,1.588,0,0,1,2.057,0,1.279,1.279,0,0,1,.409.984,1.261,1.261,0,0,1-.4.971,1.614,1.614,0,0,1-2.065,0A1.261,1.261,0,0,1,141.825,10.554ZM39.128,53.977a2.082,2.082,0,0,0,1.352-.469,1.649,1.649,0,0,0,.641-1.172h1.367a2.621,2.621,0,0,1-.5,1.383,3.293,3.293,0,0,1-1.23,1.047,3.55,3.55,0,0,1-1.629.391A3.482,3.482,0,0,1,36.382,54a4.59,4.59,0,0,1-1.02-3.152v-.242a5.089,5.089,0,0,1,.453-2.2,3.451,3.451,0,0,1,1.3-1.492,3.7,3.7,0,0,1,2-.531,3.39,3.39,0,0,1,2.363.852,3.043,3.043,0,0,1,1,2.211H41.12a1.992,1.992,0,0,0-.621-1.348,1.932,1.932,0,0,0-1.379-.527,2.023,2.023,0,0,0-1.707.793,3.724,3.724,0,0,0-.605,2.293v.273a3.65,3.65,0,0,0,.6,2.25A2.033,2.033,0,0,0,39.128,53.977Zm10.2.188a3.07,3.07,0,0,1-2.477.992,2.628,2.628,0,0,1-2.059-.785,3.4,3.4,0,0,1-.715-2.324v-5.5h1.445v5.461q0,1.922,1.563,1.922a2.163,2.163,0,0,0,2.2-1.234V46.547h1.445V55H49.363Zm4.961-7.617.039.938a3.122,3.122,0,0,1,2.508-1.094,2.417,2.417,0,0,1,2.414,1.359,3.2,3.2,0,0,1,1.1-.984,3.242,3.242,0,0,1,1.6-.375q2.781,0,2.828,2.945V55H63.331V49.422a1.941,1.941,0,0,0-.414-1.355,1.823,1.823,0,0,0-1.391-.449,1.916,1.916,0,0,0-1.336.48,1.949,1.949,0,0,0-.617,1.293V55H58.12V49.461a1.613,1.613,0,0,0-1.8-1.844,1.934,1.934,0,0,0-1.945,1.211V55H52.925V46.547Zm19.8,4.32a5.062,5.062,0,0,1-.883,3.109,2.829,2.829,0,0,1-2.391,1.18A3.1,3.1,0,0,1,68.4,54.18v4.07H66.956v-11.7h1.32l.07.938A2.977,2.977,0,0,1,70.8,46.391a2.882,2.882,0,0,1,2.41,1.148,5.117,5.117,0,0,1,.887,3.2ZM72.652,50.7a3.735,3.735,0,0,0-.609-2.258,1.963,1.963,0,0,0-1.672-.828A2.125,2.125,0,0,0,68.4,48.781V52.82a2.129,2.129,0,0,0,1.984,1.156,1.954,1.954,0,0,0,1.652-.824A4.077,4.077,0,0,0,72.652,50.7ZM77.5,55H76.058V43H77.5Zm5.82.156a3.693,3.693,0,0,1-2.8-1.129,4.19,4.19,0,0,1-1.078-3.02v-.266a5.073,5.073,0,0,1,.48-2.246,3.748,3.748,0,0,1,1.344-1.547,3.378,3.378,0,0,1,1.871-.559,3.166,3.166,0,0,1,2.563,1.086,4.7,4.7,0,0,1,.914,3.109v.6H80.894a3,3,0,0,0,.73,2.02,2.3,2.3,0,0,0,1.777.77,2.517,2.517,0,0,0,1.3-.312,3.259,3.259,0,0,0,.93-.828l.883.688A3.55,3.55,0,0,1,83.324,55.156Zm-.18-7.578a1.928,1.928,0,0,0-1.469.637A3.1,3.1,0,0,0,80.941,50h4.234v-.109a2.753,2.753,0,0,0-.594-1.707A1.815,1.815,0,0,0,83.144,47.578Zm12.5,6.4A2.082,2.082,0,0,0,97,53.508a1.649,1.649,0,0,0,.641-1.172H99a2.621,2.621,0,0,1-.5,1.383,3.293,3.293,0,0,1-1.23,1.047,3.55,3.55,0,0,1-1.629.391A3.482,3.482,0,0,1,92.9,54a4.59,4.59,0,0,1-1.02-3.152v-.242a5.089,5.089,0,0,1,.453-2.2,3.451,3.451,0,0,1,1.3-1.492,3.7,3.7,0,0,1,2-.531A3.39,3.39,0,0,1,98,47.242a3.043,3.043,0,0,1,1,2.211H97.636a1.992,1.992,0,0,0-.621-1.348,1.932,1.932,0,0,0-1.379-.527,2.023,2.023,0,0,0-1.707.793,3.724,3.724,0,0,0-.605,2.293v.273a3.65,3.65,0,0,0,.6,2.25A2.033,2.033,0,0,0,95.644,53.977Zm4.6-3.281a4.993,4.993,0,0,1,.488-2.234,3.643,3.643,0,0,1,1.359-1.531,3.7,3.7,0,0,1,1.988-.539,3.565,3.565,0,0,1,2.793,1.2,4.6,4.6,0,0,1,1.066,3.18v.1a5.036,5.036,0,0,1-.473,2.215,3.589,3.589,0,0,1-1.352,1.527,3.743,3.743,0,0,1-2.02.547,3.556,3.556,0,0,1-2.785-1.2,4.575,4.575,0,0,1-1.066-3.164Zm1.453.172a3.616,3.616,0,0,0,.652,2.258,2.211,2.211,0,0,0,3.5-.012A3.955,3.955,0,0,0,106.5,50.7a3.61,3.61,0,0,0-.66-2.254,2.1,2.1,0,0,0-1.754-.863,2.075,2.075,0,0,0-1.727.852A3.925,3.925,0,0,0,101.7,50.867Zm9.422-4.32.047,1.063a3.08,3.08,0,0,1,2.531-1.219q2.68,0,2.7,3.023V55h-1.445V49.406a1.946,1.946,0,0,0-.418-1.352,1.675,1.675,0,0,0-1.277-.437,2.086,2.086,0,0,0-1.234.375,2.546,2.546,0,0,0-.828.984V55h-1.445V46.547Zm16.344,6.211a1.064,1.064,0,0,0-.441-.91,4.249,4.249,0,0,0-1.539-.559,7.277,7.277,0,0,1-1.742-.562,2.479,2.479,0,0,1-.953-.781,1.869,1.869,0,0,1-.309-1.078,2.193,2.193,0,0,1,.879-1.758,3.432,3.432,0,0,1,2.246-.719,3.532,3.532,0,0,1,2.332.742,2.357,2.357,0,0,1,.895,1.9h-1.453a1.3,1.3,0,0,0-.5-1.023,1.888,1.888,0,0,0-1.27-.43,1.976,1.976,0,0,0-1.234.344,1.082,1.082,0,0,0-.445.9.877.877,0,0,0,.414.789,5.1,5.1,0,0,0,1.5.508,7.8,7.8,0,0,1,1.754.578,2.558,2.558,0,0,1,1,.809,1.988,1.988,0,0,1,.324,1.152A2.163,2.163,0,0,1,128,54.473a3.8,3.8,0,0,1-2.352.684,4.257,4.257,0,0,1-1.8-.359,2.922,2.922,0,0,1-1.223-1,2.42,2.42,0,0,1-.441-1.395h1.445a1.5,1.5,0,0,0,.582,1.152,2.258,2.258,0,0,0,1.434.426,2.331,2.331,0,0,0,1.316-.332A1.02,1.02,0,0,0,127.464,52.758Zm8.547,1.406a3.07,3.07,0,0,1-2.477.992,2.628,2.628,0,0,1-2.059-.785,3.4,3.4,0,0,1-.715-2.324v-5.5h1.445v5.461q0,1.922,1.563,1.922a2.163,2.163,0,0,0,2.2-1.234V46.547h1.445V55h-1.375Zm-77.2,14.7a5.062,5.062,0,0,1-.883,3.109,2.829,2.829,0,0,1-2.391,1.18,3.1,3.1,0,0,1-2.422-.977v4.07H51.675v-11.7H53l.07.938a2.977,2.977,0,0,1,2.453-1.094,2.882,2.882,0,0,1,2.41,1.148,5.117,5.117,0,0,1,.887,3.2ZM57.37,68.7a3.735,3.735,0,0,0-.609-2.258,1.963,1.963,0,0,0-1.672-.828,2.125,2.125,0,0,0-1.969,1.164V70.82A2.129,2.129,0,0,0,55.1,71.977a1.954,1.954,0,0,0,1.652-.824A4.077,4.077,0,0,0,57.37,68.7Zm7.367-2.859a4.331,4.331,0,0,0-.711-.055A1.9,1.9,0,0,0,62.1,67v6H60.652V64.547h1.406l.023.977A2.251,2.251,0,0,1,64.1,64.391a1.477,1.477,0,0,1,.641.109Zm.789,2.852a4.993,4.993,0,0,1,.488-2.234,3.643,3.643,0,0,1,1.359-1.531,3.7,3.7,0,0,1,1.988-.539,3.565,3.565,0,0,1,2.793,1.2,4.6,4.6,0,0,1,1.066,3.18v.1a5.036,5.036,0,0,1-.473,2.215A3.589,3.589,0,0,1,71.4,72.609a3.743,3.743,0,0,1-2.02.547,3.556,3.556,0,0,1-2.785-1.2A4.575,4.575,0,0,1,65.527,68.8Zm1.453.172a3.616,3.616,0,0,0,.652,2.258,2.211,2.211,0,0,0,3.5-.012,3.955,3.955,0,0,0,.648-2.418,3.61,3.61,0,0,0-.66-2.254,2.1,2.1,0,0,0-1.754-.863,2.075,2.075,0,0,0-1.727.852A3.925,3.925,0,0,0,66.98,68.867Zm15.2,0a5.062,5.062,0,0,1-.883,3.109,2.829,2.829,0,0,1-2.391,1.18,3.1,3.1,0,0,1-2.422-.977v4.07H75.034v-11.7h1.32l.07.938a2.977,2.977,0,0,1,2.453-1.094,2.882,2.882,0,0,1,2.41,1.148,5.117,5.117,0,0,1,.887,3.2ZM80.73,68.7a3.735,3.735,0,0,0-.609-2.258,1.963,1.963,0,0,0-1.672-.828,2.125,2.125,0,0,0-1.969,1.164V70.82a2.129,2.129,0,0,0,1.984,1.156,1.954,1.954,0,0,0,1.652-.824A4.077,4.077,0,0,0,80.73,68.7Zm2.9-.008a4.993,4.993,0,0,1,.488-2.234,3.643,3.643,0,0,1,1.359-1.531,3.7,3.7,0,0,1,1.988-.539,3.565,3.565,0,0,1,2.793,1.2,4.6,4.6,0,0,1,1.066,3.18v.1a5.036,5.036,0,0,1-.473,2.215A3.589,3.589,0,0,1,89.5,72.609a3.743,3.743,0,0,1-2.02.547,3.556,3.556,0,0,1-2.785-1.2A4.575,4.575,0,0,1,83.628,68.8Zm1.453.172a3.616,3.616,0,0,0,.652,2.258,2.211,2.211,0,0,0,3.5-.012,3.955,3.955,0,0,0,.648-2.418,3.61,3.61,0,0,0-.66-2.254,2.1,2.1,0,0,0-1.754-.863,2.075,2.075,0,0,0-1.727.852A3.925,3.925,0,0,0,85.081,68.867ZM88.12,61h1.75l-2.094,2.3H86.613Zm9.938,9.758a1.064,1.064,0,0,0-.441-.91,4.249,4.249,0,0,0-1.539-.559,7.277,7.277,0,0,1-1.742-.562,2.478,2.478,0,0,1-.953-.781,1.869,1.869,0,0,1-.309-1.078,2.193,2.193,0,0,1,.879-1.758,3.432,3.432,0,0,1,2.246-.719,3.532,3.532,0,0,1,2.332.742,2.357,2.357,0,0,1,.895,1.9H97.972a1.3,1.3,0,0,0-.5-1.023,1.888,1.888,0,0,0-1.27-.43,1.976,1.976,0,0,0-1.234.344,1.082,1.082,0,0,0-.445.9.877.877,0,0,0,.414.789,5.1,5.1,0,0,0,1.5.508,7.8,7.8,0,0,1,1.754.578,2.559,2.559,0,0,1,1,.809,1.988,1.988,0,0,1,.324,1.152,2.163,2.163,0,0,1-.906,1.816,3.8,3.8,0,0,1-2.352.684,4.257,4.257,0,0,1-1.8-.359,2.922,2.922,0,0,1-1.223-1,2.42,2.42,0,0,1-.441-1.395H94.23a1.5,1.5,0,0,0,.582,1.152,2.258,2.258,0,0,0,1.434.426,2.331,2.331,0,0,0,1.316-.332A1.02,1.02,0,0,0,98.058,70.758Zm4.9,2.242h-1.445V64.547h1.445Zm-1.562-10.7a.863.863,0,0,1,.215-.594.807.807,0,0,1,.637-.242.819.819,0,0,1,.641.242.854.854,0,0,1,.219.594.826.826,0,0,1-.219.586.834.834,0,0,1-.641.234.821.821,0,0,1-.637-.234A.834.834,0,0,1,101.394,62.3Zm5.836.2v2.047h1.578v1.117H107.23v5.242a1.171,1.171,0,0,0,.211.762.888.888,0,0,0,.719.254,3.5,3.5,0,0,0,.688-.094V73a4.19,4.19,0,0,1-1.109.156,1.8,1.8,0,0,1-1.461-.586,2.517,2.517,0,0,1-.492-1.664V65.664h-1.539V64.547h1.539V62.5Zm2.727,6.2a4.993,4.993,0,0,1,.488-2.234A3.643,3.643,0,0,1,111.8,64.93a3.7,3.7,0,0,1,1.988-.539,3.565,3.565,0,0,1,2.793,1.2,4.6,4.6,0,0,1,1.066,3.18v.1a5.036,5.036,0,0,1-.473,2.215,3.589,3.589,0,0,1-1.352,1.527,3.743,3.743,0,0,1-2.02.547,3.556,3.556,0,0,1-2.785-1.2,4.575,4.575,0,0,1-1.066-3.164Zm1.453.172a3.616,3.616,0,0,0,.652,2.258,2.211,2.211,0,0,0,3.5-.012,3.955,3.955,0,0,0,.648-2.418,3.61,3.61,0,0,0-.66-2.254,2.1,2.1,0,0,0-1.754-.863,2.075,2.075,0,0,0-1.727.852A3.925,3.925,0,0,0,111.409,68.867Zm8.086,3.375a.905.905,0,0,1,.223-.625.848.848,0,0,1,.668-.25.874.874,0,0,1,.676.25.887.887,0,0,1,.23.625.839.839,0,0,1-.23.6.89.89,0,0,1-.676.242.8.8,0,0,1-.891-.844Z" transform="translate(852.688 1513.662)" fill="#12263f"/><path d="M39.129,19V6.2h3.938a5.98,5.98,0,0,1,3.019.76,5.3,5.3,0,0,1,2.079,2.162,6.669,6.669,0,0,1,.747,3.186V12.9a6.688,6.688,0,0,1-.734,3.173,5.256,5.256,0,0,1-2.07,2.153A6.025,6.025,0,0,1,43.093,19ZM41.766,8.339v8.543H43.04A2.863,2.863,0,0,0,45.4,15.871a4.567,4.567,0,0,0,.835-2.892V12.3a4.64,4.64,0,0,0-.809-2.958,2.854,2.854,0,0,0-2.364-1.006Zm14.59,9.694a3.185,3.185,0,0,1-2.6,1.143,3,3,0,0,1-2.333-.879,3.752,3.752,0,0,1-.822-2.575V9.49h2.54v6.144q0,1.485,1.354,1.485a1.835,1.835,0,0,0,1.775-.9V9.49h2.549V19H56.426Zm9.721-6.161a6.9,6.9,0,0,0-.914-.07,1.86,1.86,0,0,0-1.89.976V19h-2.54V9.49h2.4l.07,1.134a2.354,2.354,0,0,1,2.118-1.31,2.662,2.662,0,0,1,.791.114ZM72.545,19a2.821,2.821,0,0,1-.255-.853,3.073,3.073,0,0,1-2.4,1.028,3.376,3.376,0,0,1-2.316-.809,2.6,2.6,0,0,1-.918-2.039,2.687,2.687,0,0,1,1.121-2.32,5.529,5.529,0,0,1,3.239-.817h1.169v-.545a1.567,1.567,0,0,0-.338-1.055,1.331,1.331,0,0,0-1.068-.4,1.513,1.513,0,0,0-1.006.308,1.045,1.045,0,0,0-.365.844h-2.54a2.551,2.551,0,0,1,.51-1.529,3.37,3.37,0,0,1,1.441-1.1,5.253,5.253,0,0,1,2.092-.4A4.15,4.15,0,0,1,73.7,10.2a3.09,3.09,0,0,1,1.033,2.483V16.8a4.546,4.546,0,0,0,.378,2.048V19Zm-2.1-1.767a2.188,2.188,0,0,0,1.037-.25,1.645,1.645,0,0,0,.7-.672V14.676h-.949q-1.907,0-2.03,1.318l-.009.149a1.017,1.017,0,0,0,.334.782A1.3,1.3,0,0,0,70.445,17.233Zm14.81-2.9a5.758,5.758,0,0,1-.976,3.564,3.231,3.231,0,0,1-2.725,1.279,2.969,2.969,0,0,1-2.47-1.187L78.97,19H76.685V5.5h2.54v4.843a2.893,2.893,0,0,1,2.312-1.028,3.258,3.258,0,0,1,2.729,1.279,5.767,5.767,0,0,1,.989,3.6Zm-2.54-.185a3.783,3.783,0,0,0-.457-2.1,1.545,1.545,0,0,0-1.362-.664,1.676,1.676,0,0,0-1.67.993v3.753a1.7,1.7,0,0,0,1.688,1,1.568,1.568,0,0,0,1.617-1.213A6.257,6.257,0,0,0,82.714,14.148ZM89.5,19H86.951V9.49H89.5ZM86.8,7.029a1.251,1.251,0,0,1,.382-.94,1.648,1.648,0,0,1,2.079,0,1.244,1.244,0,0,1,.387.94,1.247,1.247,0,0,1-.391.949,1.629,1.629,0,0,1-2.065,0A1.247,1.247,0,0,1,86.8,7.029ZM94.272,19H91.723V5.5h2.549Zm4.772,0H96.5V9.49h2.549Zm-2.7-11.971a1.251,1.251,0,0,1,.382-.94,1.648,1.648,0,0,1,2.079,0,1.244,1.244,0,0,1,.387.94,1.247,1.247,0,0,1-.391.949,1.629,1.629,0,0,1-2.065,0A1.247,1.247,0,0,1,96.346,7.029Zm4.395,7.146a5.731,5.731,0,0,1,1-3.542,3.237,3.237,0,0,1,2.729-1.318,2.913,2.913,0,0,1,2.294,1.037V5.5h2.549V19h-2.294l-.123-1.011a2.989,2.989,0,0,1-2.443,1.187,3.228,3.228,0,0,1-2.694-1.323A5.916,5.916,0,0,1,100.741,14.175Zm2.54.185a3.744,3.744,0,0,0,.466,2.048,1.518,1.518,0,0,0,1.354.712,1.7,1.7,0,0,0,1.661-.993V12.373a1.676,1.676,0,0,0-1.644-.993Q103.281,11.38,103.281,14.359ZM116.789,19a2.821,2.821,0,0,1-.255-.853,3.073,3.073,0,0,1-2.4,1.028,3.376,3.376,0,0,1-2.316-.809,2.6,2.6,0,0,1-.918-2.039,2.687,2.687,0,0,1,1.121-2.32,5.529,5.529,0,0,1,3.239-.817h1.169v-.545a1.567,1.567,0,0,0-.338-1.055,1.331,1.331,0,0,0-1.068-.4,1.513,1.513,0,0,0-1.006.308,1.045,1.045,0,0,0-.365.844h-2.54a2.551,2.551,0,0,1,.51-1.529,3.37,3.37,0,0,1,1.441-1.1,5.253,5.253,0,0,1,2.092-.4,4.15,4.15,0,0,1,2.791.883,3.09,3.09,0,0,1,1.033,2.483V16.8a4.546,4.546,0,0,0,.378,2.048V19Zm-2.1-1.767a2.188,2.188,0,0,0,1.037-.25,1.645,1.645,0,0,0,.7-.672V14.676h-.949q-1.907,0-2.03,1.318l-.009.149a1.017,1.017,0,0,0,.334.782A1.3,1.3,0,0,0,114.689,17.233Zm5.845-3.059a5.731,5.731,0,0,1,1-3.542,3.237,3.237,0,0,1,2.729-1.318,2.913,2.913,0,0,1,2.294,1.037V5.5H129.1V19h-2.294l-.123-1.011a2.989,2.989,0,0,1-2.443,1.187,3.228,3.228,0,0,1-2.694-1.323A5.916,5.916,0,0,1,120.534,14.175Zm2.54.185a3.744,3.744,0,0,0,.466,2.048,1.518,1.518,0,0,0,1.354.712,1.7,1.7,0,0,0,1.661-.993V12.373a1.676,1.676,0,0,0-1.644-.993Q123.074,11.38,123.074,14.359Zm8.121,3.393a1.279,1.279,0,0,1,.409-.984,1.588,1.588,0,0,1,2.057,0,1.279,1.279,0,0,1,.409.984,1.261,1.261,0,0,1-.4.971,1.614,1.614,0,0,1-2.065,0A1.261,1.261,0,0,1,131.195,17.752Zm0-7.2a1.279,1.279,0,0,1,.409-.984,1.588,1.588,0,0,1,2.057,0,1.279,1.279,0,0,1,.409.984,1.261,1.261,0,0,1-.4.971,1.614,1.614,0,0,1-2.065,0A1.261,1.261,0,0,1,131.195,10.554Zm-92.086,42.2a1.064,1.064,0,0,0-.441-.91,4.249,4.249,0,0,0-1.539-.559,7.277,7.277,0,0,1-1.742-.562,2.479,2.479,0,0,1-.953-.781,1.869,1.869,0,0,1-.309-1.078A2.193,2.193,0,0,1,35,47.109a3.432,3.432,0,0,1,2.246-.719,3.532,3.532,0,0,1,2.332.742,2.357,2.357,0,0,1,.895,1.9H39.023a1.3,1.3,0,0,0-.5-1.023,1.888,1.888,0,0,0-1.27-.43,1.976,1.976,0,0,0-1.234.344,1.082,1.082,0,0,0-.445.9.877.877,0,0,0,.414.789,5.1,5.1,0,0,0,1.5.508,7.8,7.8,0,0,1,1.754.578,2.558,2.558,0,0,1,1,.809,1.988,1.988,0,0,1,.324,1.152,2.163,2.163,0,0,1-.906,1.816,3.8,3.8,0,0,1-2.352.684,4.257,4.257,0,0,1-1.8-.359,2.922,2.922,0,0,1-1.223-1,2.42,2.42,0,0,1-.441-1.395h1.445a1.5,1.5,0,0,0,.582,1.152,2.258,2.258,0,0,0,1.434.426,2.331,2.331,0,0,0,1.316-.332A1.02,1.02,0,0,0,39.109,52.758ZM42.054,50.7a4.993,4.993,0,0,1,.488-2.234A3.643,3.643,0,0,1,43.9,46.93a3.7,3.7,0,0,1,1.988-.539,3.565,3.565,0,0,1,2.793,1.2,4.6,4.6,0,0,1,1.066,3.18v.1a5.036,5.036,0,0,1-.473,2.215,3.589,3.589,0,0,1-1.352,1.527,3.743,3.743,0,0,1-2.02.547,3.556,3.556,0,0,1-2.785-1.2A4.575,4.575,0,0,1,42.054,50.8Zm1.453.172a3.616,3.616,0,0,0,.652,2.258,2.211,2.211,0,0,0,3.5-.012A3.955,3.955,0,0,0,48.3,50.7a3.61,3.61,0,0,0-.66-2.254,2.1,2.1,0,0,0-1.754-.863,2.075,2.075,0,0,0-1.727.852A3.925,3.925,0,0,0,43.507,50.867Zm15.2,0a5.062,5.062,0,0,1-.883,3.109,2.829,2.829,0,0,1-2.391,1.18,3.1,3.1,0,0,1-2.422-.977v4.07H51.562v-11.7h1.32l.07.938a2.977,2.977,0,0,1,2.453-1.094,2.882,2.882,0,0,1,2.41,1.148,5.117,5.117,0,0,1,.887,3.2ZM57.257,50.7a3.735,3.735,0,0,0-.609-2.258,1.963,1.963,0,0,0-1.672-.828,2.125,2.125,0,0,0-1.969,1.164V52.82a2.129,2.129,0,0,0,1.984,1.156,1.954,1.954,0,0,0,1.652-.824A4.077,4.077,0,0,0,57.257,50.7Zm2.9-.008a4.993,4.993,0,0,1,.488-2.234A3.643,3.643,0,0,1,62,46.93a3.7,3.7,0,0,1,1.988-.539,3.565,3.565,0,0,1,2.793,1.2,4.6,4.6,0,0,1,1.066,3.18v.1a5.036,5.036,0,0,1-.473,2.215,3.589,3.589,0,0,1-1.352,1.527,3.743,3.743,0,0,1-2.02.547,3.556,3.556,0,0,1-2.785-1.2A4.575,4.575,0,0,1,60.156,50.8Zm1.453.172a3.616,3.616,0,0,0,.652,2.258,2.211,2.211,0,0,0,3.5-.012,3.955,3.955,0,0,0,.648-2.418,3.61,3.61,0,0,0-.66-2.254,2.1,2.1,0,0,0-1.754-.863,2.075,2.075,0,0,0-1.727.852A3.925,3.925,0,0,0,61.609,50.867Zm12.141-3.023a4.331,4.331,0,0,0-.711-.055A1.9,1.9,0,0,0,71.109,49v6H69.663V46.547H71.07l.023.977a2.251,2.251,0,0,1,2.016-1.133,1.477,1.477,0,0,1,.641.109Zm3.68-3.344v2.047h1.578v1.117H77.429v5.242a1.171,1.171,0,0,0,.211.762.888.888,0,0,0,.719.254,3.5,3.5,0,0,0,.688-.094V55a4.19,4.19,0,0,1-1.109.156,1.8,1.8,0,0,1-1.461-.586,2.517,2.517,0,0,1-.492-1.664V47.664H74.445V46.547h1.539V44.5ZM85.913,55a3.036,3.036,0,0,1-.2-.891A3.225,3.225,0,0,1,83.3,55.156a2.984,2.984,0,0,1-2.051-.707,2.288,2.288,0,0,1-.8-1.793,2.39,2.39,0,0,1,1-2.051,4.733,4.733,0,0,1,2.824-.73h1.406v-.664A1.623,1.623,0,0,0,85.234,48a1.821,1.821,0,0,0-1.336-.449,2.107,2.107,0,0,0-1.3.391,1.151,1.151,0,0,0-.523.945H80.624a2,2,0,0,1,.449-1.223,3.066,3.066,0,0,1,1.219-.934,4.1,4.1,0,0,1,1.691-.344,3.342,3.342,0,0,1,2.289.73,2.635,2.635,0,0,1,.859,2.012v3.891a4.757,4.757,0,0,0,.3,1.852V55Zm-2.4-1.1a2.54,2.54,0,0,0,1.289-.352,2.127,2.127,0,0,0,.883-.914V50.9H84.554q-2.656,0-2.656,1.555a1.316,1.316,0,0,0,.453,1.063A1.742,1.742,0,0,0,83.515,53.9Zm15.063.266a3.07,3.07,0,0,1-2.477.992,2.628,2.628,0,0,1-2.059-.785,3.4,3.4,0,0,1-.715-2.324v-5.5h1.445v5.461q0,1.922,1.563,1.922a2.163,2.163,0,0,0,2.2-1.234V46.547h1.445V55H98.609Zm4.969-7.617.047,1.063a3.08,3.08,0,0,1,2.531-1.219q2.68,0,2.7,3.023V55h-1.445V49.406a1.946,1.946,0,0,0-.418-1.352,1.675,1.675,0,0,0-1.277-.437,2.086,2.086,0,0,0-1.234.375,2.546,2.546,0,0,0-.828.984V55h-1.445V46.547Zm16.641,7.617a3.07,3.07,0,0,1-2.477.992,2.628,2.628,0,0,1-2.059-.785,3.4,3.4,0,0,1-.715-2.324v-5.5h1.445v5.461q0,1.922,1.563,1.922a2.163,2.163,0,0,0,2.2-1.234V46.547h1.445V55h-1.375Zm8.523-1.406a1.064,1.064,0,0,0-.441-.91,4.249,4.249,0,0,0-1.539-.559,7.277,7.277,0,0,1-1.742-.562,2.479,2.479,0,0,1-.953-.781,1.869,1.869,0,0,1-.309-1.078,2.193,2.193,0,0,1,.879-1.758,3.432,3.432,0,0,1,2.246-.719,3.532,3.532,0,0,1,2.332.742,2.357,2.357,0,0,1,.895,1.9h-1.453a1.3,1.3,0,0,0-.5-1.023,1.888,1.888,0,0,0-1.27-.43,1.976,1.976,0,0,0-1.234.344,1.082,1.082,0,0,0-.445.9.877.877,0,0,0,.414.789,5.1,5.1,0,0,0,1.5.508,7.8,7.8,0,0,1,1.754.578,2.558,2.558,0,0,1,1,.809,1.988,1.988,0,0,1,.324,1.152,2.163,2.163,0,0,1-.906,1.816,3.8,3.8,0,0,1-2.352.684,4.257,4.257,0,0,1-1.8-.359,2.922,2.922,0,0,1-1.223-1,2.42,2.42,0,0,1-.441-1.395h1.445a1.5,1.5,0,0,0,.582,1.152,2.258,2.258,0,0,0,1.434.426,2.331,2.331,0,0,0,1.316-.332A1.02,1.02,0,0,0,128.71,52.758Zm2.945-2.062a4.993,4.993,0,0,1,.488-2.234A3.642,3.642,0,0,1,133.5,46.93a3.7,3.7,0,0,1,1.988-.539,3.565,3.565,0,0,1,2.793,1.2,4.6,4.6,0,0,1,1.066,3.18v.1a5.036,5.036,0,0,1-.473,2.215,3.589,3.589,0,0,1-1.352,1.527,3.743,3.743,0,0,1-2.02.547,3.556,3.556,0,0,1-2.785-1.2,4.575,4.575,0,0,1-1.066-3.164Zm1.453.172a3.616,3.616,0,0,0,.652,2.258,2.211,2.211,0,0,0,3.5-.012,3.954,3.954,0,0,0,.648-2.418,3.61,3.61,0,0,0-.66-2.254,2.1,2.1,0,0,0-1.754-.863,2.075,2.075,0,0,0-1.727.852A3.925,3.925,0,0,0,133.109,50.867ZM57.855,71.977a2.082,2.082,0,0,0,1.352-.469,1.649,1.649,0,0,0,.641-1.172h1.367a2.621,2.621,0,0,1-.5,1.383,3.293,3.293,0,0,1-1.23,1.047,3.55,3.55,0,0,1-1.629.391A3.482,3.482,0,0,1,55.109,72a4.59,4.59,0,0,1-1.02-3.152v-.242a5.089,5.089,0,0,1,.453-2.2,3.451,3.451,0,0,1,1.3-1.492,3.7,3.7,0,0,1,2-.531,3.39,3.39,0,0,1,2.363.852,3.043,3.043,0,0,1,1,2.211H59.847a1.992,1.992,0,0,0-.621-1.348,1.932,1.932,0,0,0-1.379-.527,2.023,2.023,0,0,0-1.707.793,3.724,3.724,0,0,0-.605,2.293v.273a3.65,3.65,0,0,0,.6,2.25A2.033,2.033,0,0,0,57.855,71.977Zm4.6-3.281a4.993,4.993,0,0,1,.488-2.234A3.642,3.642,0,0,1,64.3,64.93a3.7,3.7,0,0,1,1.988-.539,3.565,3.565,0,0,1,2.793,1.2,4.6,4.6,0,0,1,1.066,3.18v.1a5.036,5.036,0,0,1-.473,2.215,3.589,3.589,0,0,1-1.352,1.527,3.743,3.743,0,0,1-2.02.547,3.556,3.556,0,0,1-2.785-1.2A4.575,4.575,0,0,1,62.456,68.8Zm1.453.172a3.616,3.616,0,0,0,.652,2.258,2.211,2.211,0,0,0,3.5-.012,3.955,3.955,0,0,0,.648-2.418,3.61,3.61,0,0,0-.66-2.254,2.1,2.1,0,0,0-1.754-.863,2.075,2.075,0,0,0-1.727.852A3.925,3.925,0,0,0,63.909,68.867Zm9.422-4.32.047,1.063a3.08,3.08,0,0,1,2.531-1.219q2.68,0,2.7,3.023V73H77.167V67.406a1.946,1.946,0,0,0-.418-1.352,1.675,1.675,0,0,0-1.277-.437,2.086,2.086,0,0,0-1.234.375,2.546,2.546,0,0,0-.828.984V73H71.964V64.547ZM82.753,62.5v2.047h1.578v1.117H82.753v5.242a1.171,1.171,0,0,0,.211.762.888.888,0,0,0,.719.254,3.5,3.5,0,0,0,.688-.094V73a4.19,4.19,0,0,1-1.109.156A1.8,1.8,0,0,1,81.8,72.57a2.517,2.517,0,0,1-.492-1.664V65.664H79.769V64.547h1.539V62.5ZM87.589,73H86.144V64.547h1.445ZM86.027,62.3a.863.863,0,0,1,.215-.594.807.807,0,0,1,.637-.242.819.819,0,0,1,.641.242.854.854,0,0,1,.219.594.826.826,0,0,1-.219.586.834.834,0,0,1-.641.234.821.821,0,0,1-.637-.234A.834.834,0,0,1,86.027,62.3Zm5.242,2.242.047,1.063a3.08,3.08,0,0,1,2.531-1.219q2.68,0,2.7,3.023V73H95.1V67.406a1.946,1.946,0,0,0-.418-1.352,1.675,1.675,0,0,0-1.277-.437,2.086,2.086,0,0,0-1.234.375,2.546,2.546,0,0,0-.828.984V73H89.9V64.547Zm12.68,7.617a3.07,3.07,0,0,1-2.477.992,2.628,2.628,0,0,1-2.059-.785,3.4,3.4,0,0,1-.715-2.324v-5.5h1.445v5.461q0,1.922,1.563,1.922a2.163,2.163,0,0,0,2.2-1.234V64.547h1.445V73H103.98Zm3.219-3.469a4.993,4.993,0,0,1,.488-2.234,3.643,3.643,0,0,1,1.359-1.531A3.7,3.7,0,0,1,111,64.391a3.565,3.565,0,0,1,2.793,1.2,4.6,4.6,0,0,1,1.066,3.18v.1a5.036,5.036,0,0,1-.473,2.215,3.589,3.589,0,0,1-1.352,1.527,3.743,3.743,0,0,1-2.02.547,3.556,3.556,0,0,1-2.785-1.2,4.575,4.575,0,0,1-1.066-3.164Zm1.453.172a3.616,3.616,0,0,0,.652,2.258,2.211,2.211,0,0,0,3.5-.012,3.955,3.955,0,0,0,.648-2.418,3.61,3.61,0,0,0-.66-2.254A2.1,2.1,0,0,0,111,65.578a2.075,2.075,0,0,0-1.727.852A3.925,3.925,0,0,0,108.62,68.867Zm8.086,3.375a.905.905,0,0,1,.223-.625.848.848,0,0,1,.668-.25.874.874,0,0,1,.676.25.887.887,0,0,1,.23.625.839.839,0,0,1-.23.6.89.89,0,0,1-.676.242.8.8,0,0,1-.891-.844Z" transform="translate(852.767 1795.37)" fill="#12263f"/><circle cx="58.328" cy="58.328" r="58.328" transform="translate(741.703 1623.496)" fill="#ffead1"/><g transform="translate(753.248 1633.218)"><path d="M12.368,51.853A37.5,37.5,0,0,1,15.3,25.262l1.268.89a1.524,1.524,0,0,0,1.72.03,1.542,1.542,0,0,0,.694-1.57L17.5,16.343a2.113,2.113,0,0,0-.875-1.373,2.082,2.082,0,0,0-1.6-.347L6.754,16.1a1.544,1.544,0,0,0-.6,2.792l1.615,1.132A46.581,46.581,0,0,0,12.488,71.85a4.4,4.4,0,0,0,3.184,1.63c.091,0,.2.015.287.015a4.661,4.661,0,0,0,3.169-1.253,4.533,4.533,0,0,0,.377-6.188,37.446,37.446,0,0,1-7.138-14.2ZM17.6,70.627a2.414,2.414,0,0,1-1.8.649,2.306,2.306,0,0,1-1.615-.815,44.5,44.5,0,0,1-4.029-50.255,1.1,1.1,0,0,0-.332-1.464l-1.147-.8,6.64-1.222,1.192,6.7-.981-.679a1.064,1.064,0,0,0-.875-.166,1.121,1.121,0,0,0-.709.543A39.837,39.837,0,0,0,17.8,67.443,2.351,2.351,0,0,1,17.6,70.627Z" transform="translate(-2.001 4.408)" fill="#723a93"/><path d="M16.936,20.533a4.61,4.61,0,0,0,2.913-1.026A37.261,37.261,0,0,1,34,12.368a38,38,0,0,1,26.591,2.9l-.89,1.283a1.524,1.524,0,0,0-.03,1.72,1.542,1.542,0,0,0,1.57.694l8.27-1.464a2.113,2.113,0,0,0,1.373-.875,2.082,2.082,0,0,0,.347-1.6l-1.479-8.27a1.544,1.544,0,0,0-2.792-.6L65.878,7.735a46.744,46.744,0,0,0-51.855,4.739,4.4,4.4,0,0,0-1.63,3.184,4.569,4.569,0,0,0,1.238,3.456,4.513,4.513,0,0,0,3.305,1.419Zm-1.524-6.354A44.03,44.03,0,0,1,32.269,5.652a44.307,44.307,0,0,1,33.382,4.482A1.1,1.1,0,0,0,67.1,9.8l.785-1.132L69.123,15.3l-6.7,1.177.694-1a1.088,1.088,0,0,0,.166-.89,1.151,1.151,0,0,0-.543-.724A40.275,40.275,0,0,0,33.431,10.18a39.491,39.491,0,0,0-15,7.561,2.346,2.346,0,0,1-3.23-.2,2.414,2.414,0,0,1-.649-1.8,2.486,2.486,0,0,1,.86-1.57Z" transform="translate(3.285 -2)" fill="#723a93"/><path d="M66.014,52.755a37.209,37.209,0,0,1-5.176,3.516,36.4,36.4,0,0,1-8.979,3.637A37.456,37.456,0,0,1,25.252,57l.89-1.283a1.524,1.524,0,0,0,.03-1.72A1.542,1.542,0,0,0,24.6,53.3l-8.27,1.479a2.113,2.113,0,0,0-1.373.875,2.082,2.082,0,0,0-.347,1.6l1.479,8.27a1.551,1.551,0,0,0,2.792.619l1.132-1.615A46.845,46.845,0,0,0,42.4,70.262,46.99,46.99,0,0,0,71.87,59.788,4.43,4.43,0,0,0,73.5,56.6a4.674,4.674,0,0,0-1.253-3.471,4.559,4.559,0,0,0-6.233-.377Zm4.452,5.312A44.488,44.488,0,0,1,20.227,62.1a1.021,1.021,0,0,0-.543-.151,1.11,1.11,0,0,0-.905.468l-.8,1.147-1.253-6.625,6.7-1.192-.694,1a1.064,1.064,0,0,0-.166.875,1.191,1.191,0,0,0,.543.724,39.71,39.71,0,0,0,29.323,3.7,38.43,38.43,0,0,0,9.508-3.848,39.267,39.267,0,0,0,5.478-3.713,2.361,2.361,0,0,1,3.23.181,2.427,2.427,0,0,1,.649,1.811,2.26,2.26,0,0,1-.83,1.6Z" transform="translate(4.402 23.306)" fill="#723a93"/><path d="M66.121,66.994l-1.6-1.117a46.7,46.7,0,0,0-4.739-51.855,4.4,4.4,0,0,0-3.184-1.63,4.64,4.64,0,0,0-3.456,1.253,4.541,4.541,0,0,0-.377,6.218A37.044,37.044,0,0,1,59.9,34.019,37.49,37.49,0,0,1,56.976,60.61l-1.268-.89a1.524,1.524,0,0,0-1.72-.03,1.542,1.542,0,0,0-.694,1.57l1.479,8.285a2.146,2.146,0,0,0,2.1,1.766,3.449,3.449,0,0,0,.377-.03l8.27-1.479a1.529,1.529,0,0,0,1.238-1.192,1.574,1.574,0,0,0-.634-1.615Zm-9.191,2.143-1.192-6.7.981.679a1.065,1.065,0,0,0,.875.166,1.191,1.191,0,0,0,.724-.543,39.763,39.763,0,0,0-3.848-44.294,2.361,2.361,0,0,1,.181-3.23,2.414,2.414,0,0,1,1.8-.649,2.211,2.211,0,0,1,1.615.83,43.968,43.968,0,0,1,8.527,16.842,44.36,44.36,0,0,1-4.482,33.413,1.08,1.08,0,0,0,.332,1.449l1.132.785Z" transform="translate(23.31 3.288)" fill="#723a93"/><path d="M16.654,34.971h21.1a3.775,3.775,0,0,0,3.29-1.932L44.92,26.1V57H23.762a1.552,1.552,0,0,1-1.554-1.554v-15.7a1.1,1.1,0,1,0-2.2,0v15.7a3.774,3.774,0,0,0,3.773,3.773H61.355a3.774,3.774,0,0,0,3.773-3.773V34.971h3.335a2.4,2.4,0,0,0,2.1-1.207,2.449,2.449,0,0,0,.03-2.43l-4.844-8.663a3.775,3.775,0,0,0-3.29-1.932H22.66a3.775,3.775,0,0,0-3.29,1.932l-4.844,8.663a2.457,2.457,0,0,0,2.128,3.637ZM62.924,55.451A1.552,1.552,0,0,1,61.37,57H47.154V26.1l3.879,6.942a3.775,3.775,0,0,0,3.29,1.932h8.6Zm-.453-32.492a1.549,1.549,0,0,1,1.358.8l4.844,8.663a.236.236,0,0,1,0,.226.2.2,0,0,1-.2.106H54.322a1.549,1.549,0,0,1-1.358-.8l-5.025-8.995Zm-41.17.8a1.549,1.549,0,0,1,1.358-.8H44.15L39.11,31.953a1.549,1.549,0,0,1-1.358.8h-21.1a.229.229,0,0,1-.2-.106.206.206,0,0,1,0-.226Z" transform="translate(4.217 7.542)" fill="#723a93"/><path d="M22.732,43.623h5.463a1.1,1.1,0,0,0,0-2.2H22.732a1.1,1.1,0,0,0,0,2.2Z" transform="translate(7.994 18.071)" fill="#723a93"/><path d="M22.732,40.633h5.463a1.1,1.1,0,1,0,0-2.2H22.732a1.1,1.1,0,0,0,0,2.2Z" transform="translate(7.994 16.549)" fill="#723a93"/></g><g transform="translate(626.79 1448.426)"><path d="M53.6,37.91H36.064V34.219H49.905A4.619,4.619,0,0,0,54.519,29.6V17.668l-.816-.054L57.88,9.259a3.168,3.168,0,0,0,.33-1.429A3.122,3.122,0,0,0,56.6,5.1l-6.676-3.71A3.124,3.124,0,0,0,45.7,2.572l-2.257,3.95-2.257-3.95a3.121,3.121,0,0,0-4.226-1.179L30.288,5.1a3.161,3.161,0,0,0-1.276,4.157l3.362,6.722v.21l-5.536-.369V9.3a2.772,2.772,0,0,0-2.768-2.768H18.532a2.768,2.768,0,0,0,0,5.536h6.459V23.687l-3.15,3.15H5.614A4.619,4.619,0,0,0,1,31.45V53.6A4.619,4.619,0,0,0,5.614,58.21H31.45A4.619,4.619,0,0,0,36.064,53.6V39.755H49.929a4.566,4.566,0,0,0-.947,2.768A4.614,4.614,0,1,0,53.6,37.91ZM35.117,28.682H41.6v3.691H36.064V31.45A4.566,4.566,0,0,0,35.117,28.682Zm-4.628-5.536h5.575v3.691H30.528V23.528A2.171,2.171,0,0,0,30.489,23.146Zm5.575-4.857V21.3H32.373V18.042ZM52.674,19.4v1.9H48.983V19.149Zm-9.227,7.441V23.146h3.691v3.691Zm3.691,1.845v3.691H43.446V28.682ZM41.6,26.837H37.91V23.146H41.6Zm7.382-3.691h3.691v3.691H48.983Zm-1.845-4.119V21.3H43.446V18.78ZM41.6,21.3H37.91V18.411l3.691.246Zm8.3,11.073h-.923V28.682h3.691V29.6A2.772,2.772,0,0,1,49.905,32.373Zm-2.6-28.885a1.311,1.311,0,0,1,1.727-.482l6.675,3.709a1.315,1.315,0,0,1,.521,1.718l-4.523,9.048-4.569-.305V11.5a3.118,3.118,0,0,0-2.655-3.075ZM30.662,8.433a1.323,1.323,0,0,1-.135-.6,1.275,1.275,0,0,1,.656-1.116l6.674-3.708a1.309,1.309,0,0,1,1.728.481l2.8,4.9H35.494A3.125,3.125,0,0,0,32.373,11.5v.352ZM34.219,11.5a1.277,1.277,0,0,1,1.276-1.276h8.521A1.277,1.277,0,0,1,45.292,11.5v5.55l-11.073-.738Zm-3.691,6.416V21.3H28.3a2.236,2.236,0,0,0-1.463.561V17.673Zm-12-7.692a.923.923,0,1,1,0-1.845h5.536a.923.923,0,0,1,.923.923v.923ZM34.219,53.6a2.772,2.772,0,0,1-2.768,2.768H5.614A2.772,2.772,0,0,1,2.845,53.6V31.45a2.772,2.772,0,0,1,2.768-2.768H22.605l5.425-5.425a.4.4,0,0,1,.652.27v5.154H31.45a2.772,2.772,0,0,1,2.768,2.768Zm19.378-8.3a2.768,2.768,0,1,1,2.768-2.768A2.772,2.772,0,0,1,53.6,45.292Z" transform="translate(0 0)" fill="#517e64"/><path d="M28.223,40.382H24.532V36.691A3.7,3.7,0,0,0,20.841,33,1.847,1.847,0,0,0,19,34.845V39.18a3.049,3.049,0,0,1-3.048,3.048H15.5A4.59,4.59,0,0,0,12.941,43l-.4.269V42.227H7V56.991h5.536V55.146h.541l.494.494a4.585,4.585,0,0,0,3.263,1.352H28.223a2.756,2.756,0,0,0,2.048-4.614,2.726,2.726,0,0,0,0-3.691,2.726,2.726,0,0,0,0-3.691,2.756,2.756,0,0,0-2.048-4.614ZM10.691,55.146H8.845V44.073h1.845Zm17.532,0H16.834a2.752,2.752,0,0,1-1.958-.811L13.841,53.3h-1.3V45.489l1.427-.951a2.754,2.754,0,0,1,1.535-.465h.448a4.893,4.893,0,0,0,4.893-4.893V34.845a1.847,1.847,0,0,1,1.845,1.845v5.536h5.536a.923.923,0,0,1,0,1.845H25.455v1.845h2.768a.923.923,0,0,1,0,1.845H25.455v1.845h2.768a.923.923,0,0,1,0,1.845H25.455V53.3h2.768a.923.923,0,0,1,0,1.845Z" transform="translate(-0.464 -2.472)" fill="#517e64"/><path d="M5,17H17.918v1.845H5Z" transform="translate(-0.309 -1.236)" fill="#517e64"/><path d="M5,21H17.918v1.845H5Z" transform="translate(-0.309 -1.545)" fill="#517e64"/><path d="M13,25h1.845v1.845H13Z" transform="translate(-0.927 -1.854)" fill="#517e64"/><path d="M17,25h1.845v1.845H17Z" transform="translate(-1.236 -1.854)" fill="#517e64"/><path d="M9,25h1.845v1.845H9Z" transform="translate(-0.618 -1.854)" fill="#517e64"/><path d="M5,25H6.845v1.845H5Z" transform="translate(-0.309 -1.854)" fill="#517e64"/><path d="M5,33h9.227v1.845H5Z" transform="translate(-0.309 -2.472)" fill="#517e64"/><path d="M5,37h9.227v1.845H5Z" transform="translate(-0.309 -2.781)" fill="#517e64"/></g><g transform="translate(869.955 1435.66)"><g transform="translate(37.368 6.159)"><path d="M420.872,220.556h5.586a.742.742,0,0,0,0-1.484h-5.586a.742.742,0,0,0,0,1.484Z" transform="translate(-370.48 -191.454)" fill="#723a93"/><g transform="translate(0 0)"><path d="M195.843,324.728a3.93,3.93,0,0,0-5.274.6l-.628.722-.905-.618a4.535,4.535,0,0,0-5.695.5l-.757-.475a3.991,3.991,0,0,0-5.066.707l-4.394,4.844-5.527-1.455a3.188,3.188,0,0,1-1.257-.638,12.826,12.826,0,0,0-9.495-3.162.741.741,0,0,0,.089,1.479,11.423,11.423,0,0,1,8.446,2.815,4.629,4.629,0,0,0,1.836.94l9.6,2.523a2.435,2.435,0,1,1-1.277,4.7l-7.664-2.177a5.218,5.218,0,0,0-1.524-.2.749.749,0,0,0-.727.762.735.735,0,0,0,.762.722,3.613,3.613,0,0,1,1.079.143l7.669,2.177a3.93,3.93,0,0,0,4.992-3.775v-.049l3.147-.178a.757.757,0,0,0,.52-.252l7.9-9.084a2.438,2.438,0,0,1,3.681,3.2l-7.2,8.317a5.576,5.576,0,0,1-1.761,1.366l-12.7,6.3a5.819,5.819,0,0,1-4.878.134L157.186,340.6a.741.741,0,1,0-.589,1.361l11.647,5.007a7.3,7.3,0,0,0,6.125-.163l12.7-6.3a7.072,7.072,0,0,0,2.226-1.722l7.2-8.322A3.93,3.93,0,0,0,195.843,324.728Zm-18.094,7.54a4.859,4.859,0,0,0-.554-.193l-2.454-.643,3.874-4.275a2.5,2.5,0,0,1,3.181-.44l.539.336Zm5.126,1.905-3.063.173a3.931,3.931,0,0,0-.826-1.237l0,0,.01-.01a.07.07,0,0,1,.015-.02c.01,0,.015-.015.025-.025v0h0a0,0,0,0,1,0,0v0c.247-.282,1.311-1.484,5.151-5.853a3.031,3.031,0,0,1,4-.52l.762.515Zm-3.884-1.074v0l.01-.01S179,333.095,178.991,333.1Z" transform="translate(-140.742 -282.751)" fill="#723a93"/><path d="M48.249,313.062H40.52a3.093,3.093,0,0,0-3.092,3.092v18.2a3.092,3.092,0,0,0,3.092,3.087h7.728a3.092,3.092,0,0,0,3.092-3.087v-18.2A3.093,3.093,0,0,0,48.249,313.062Zm-3.864,10.123a3.073,3.073,0,1,1,3.073-3.073A3.076,3.076,0,0,1,44.385,323.185Z" transform="translate(-37.42 -273.252)" fill="#723a93"/><path d="M81.989,356.76a1.588,1.588,0,1,1-1.588-1.588A1.59,1.59,0,0,1,81.989,356.76Z" transform="translate(-73.437 -309.899)" fill="#723a93"/><path d="M251.763,12.487V6.9a.742.742,0,1,0-1.484,0v5.586a.742.742,0,1,0,1.484,0Z" transform="translate(-222.661 -6.159)" fill="#723a93"/><path d="M371.652,73.735l3.949-3.949a.742.742,0,1,0-1.049-1.049L370.6,72.686a.742.742,0,0,0,1.049,1.049Z" transform="translate(-327.187 -60.43)" fill="#723a93"/><path d="M43.7,219.071H38.11a.742.742,0,1,0,0,1.484H43.7a.742.742,0,1,0,0-1.484Z" transform="translate(-37.368 -191.453)" fill="#723a93"/><path d="M104.943,73.735a.742.742,0,0,0,0-1.049l-3.949-3.949a.742.742,0,0,0-1.049,1.049l3.949,3.949A.742.742,0,0,0,104.943,73.735Z" transform="translate(-91.638 -60.43)" fill="#723a93"/><path d="M195.325,127H179.358a2.253,2.253,0,0,0-2.251,2.251v15.966a2.252,2.252,0,0,0,2.251,2.246h15.966a2.251,2.251,0,0,0,2.246-2.246V129.252A2.252,2.252,0,0,0,195.325,127Zm-9.683,1.484h3.993v4.443l-1.687-.767a.737.737,0,0,0-.614,0l-1.692.767v-4.443Zm10.445,16.733a.762.762,0,0,1-.762.762H179.358a.767.767,0,0,1-.767-.762V129.252a.771.771,0,0,1,.767-.767h4.8v5.6a.744.744,0,0,0,1.049.678l2.434-1.108,2.429,1.108a.742.742,0,0,0,1.049-.678v-5.6h4.206a.767.767,0,0,1,.762.767v15.966Z" transform="translate(-158.981 -111.326)" fill="#723a93"/><path d="M208.793,225.523v2.424a1.409,1.409,0,0,1-1.41,1.41h-5.408a1.41,1.41,0,0,1-1.41-1.41v-2.424a1.413,1.413,0,0,1,1.41-1.41h5.408A1.413,1.413,0,0,1,208.793,225.523Z" transform="translate(-179.396 -195.841)" fill="#723a93"/></g></g></g><g transform="translate(630.051 1725)"><path d="M31,1h2V5H31Z" fill="#7e4b10"/><path d="M23,3.144h2v4H23Z" transform="matrix(0.866, -0.5, 0.5, 0.866, 0.644, 12.69)" fill="#7e4b10"/><path d="M17.143,9h2v4h-2Z" transform="matrix(0.5, -0.866, 0.866, 0.5, -0.455, 21.212)" fill="#7e4b10"/><path d="M14,18h4v2H14Z" fill="#7e4b10"/><path d="M16.144,26h4v2h-4Z" transform="matrix(0.866, -0.5, 0.5, 0.866, -11.07, 12.69)" fill="#7e4b10"/><path d="M44.856,25h2v4h-2Z" transform="matrix(0.5, -0.866, 0.866, 0.5, -0.455, 53.212)" fill="#7e4b10"/><path d="M46,18h4v2H46Z" fill="#7e4b10"/><path d="M43.857,10h4v2h-4Z" transform="matrix(0.866, -0.5, 0.5, 0.866, 0.642, 24.398)" fill="#7e4b10"/><path d="M38,4.143h4v2H38Z" transform="matrix(0.5, -0.866, 0.866, 0.5, 15.549, 37.215)" fill="#7e4b10"/><path d="M63,34.256,52.287,31.042,39,31v-.716l3.194-5.111A11.951,11.951,0,0,0,44,18.79,11.8,11.8,0,0,0,32.21,7h-.331A11.883,11.883,0,0,0,20,18.886v.139a11.3,11.3,0,0,0,1.708,5.995L25,30.287V31H12L1,34.256V49.344l10-3V56a7.008,7.008,0,0,0,7,7H46a7.008,7.008,0,0,0,7-7V46.344l10,3ZM27,31H37v4a5,5,0,0,1-10,0Zm2.9-6.721-2.8-3.5a.489.489,0,0,1-.1-.3.48.48,0,0,1,.48-.48h1.7a2.982,2.982,0,0,0,5.632,0h1.7a.48.48,0,0,1,.375.78l-2.8,3.5A5.019,5.019,0,0,0,33,27.4V29H31V27.4A5.019,5.019,0,0,0,29.9,24.279ZM31,19a1,1,0,1,1,1,1A1,1,0,0,1,31,19Zm-7.6,4.959A9.287,9.287,0,0,1,22,19.025v-.139A9.884,9.884,0,0,1,31.879,9h.331A9.88,9.88,0,0,1,40.5,24.116L37.446,29H35V27.4a3.009,3.009,0,0,1,.657-1.874l2.8-3.5A2.481,2.481,0,0,0,36.52,18h-1.7a2.982,2.982,0,0,0-5.632,0h-1.7a2.481,2.481,0,0,0-1.937,4.03l2.8,3.5A3.011,3.011,0,0,1,29,27.4V29H26.554ZM32,42a7.008,7.008,0,0,0,7-7V33H51V44H13V33H25v2A7.008,7.008,0,0,0,32,42ZM3,46.656V35.744l8-2.4V44.295ZM46,61H18a5.006,5.006,0,0,1-5-5V46H51V56A5.006,5.006,0,0,1,46,61ZM61,46.656l-8-2.4V33.344l8,2.4Z" fill="#7e4b10"/><path d="M37,48H49v2H37Z" fill="#7e4b10"/><path d="M47,52h2v2H47Z" fill="#7e4b10"/><path d="M37,52h8v2H37Z" fill="#7e4b10"/></g><path d="M67.193,54.185V62.57a.952.952,0,0,1-.955.955H54.609a.955.955,0,0,1-.955-.955V54.185h-8.61a11.173,11.173,0,0,1-5.846.546V82.49H65.484c-.878-2.421-.812-5.6-.708-10.783.023-1.136.05-2.37.065-3.692a.951.951,0,0,1,.8-.927v0a17.127,17.127,0,0,0,10.145-5.548.955.955,0,0,1,1.438,0,16.612,16.612,0,0,0,2.78,2.52V54.185Zm-11.63,0V61.62h9.719V54.185ZM54.3,74.6a.955.955,0,0,1,0-1.909H60.76a.955.955,0,0,1,0,1.909Zm0-3.77a.955.955,0,1,1,0-1.909H60.76a.955.955,0,1,1,0,1.909ZM71.766,77.34a.954.954,0,0,1,1.349-1.349l2.019,2.019,3.127-5.42a.953.953,0,0,1,1.65.955L76.2,79.982a.955.955,0,0,1-1.534.255Zm4.288,9.789c-8.475-4.442-8.459-5.327-8.273-14.18.015-.824.035-1.717.046-2.664a.947.947,0,0,1,.8-.927,12.1,12.1,0,0,0,7.164-3.92.955.955,0,0,1,1.438,0,12.1,12.1,0,0,0,7.16,3.916.948.948,0,0,1,.8.959c.011.936.031,1.821.046,2.632.181,8.857.2,9.738-8.288,14.188A.953.953,0,0,1,76.054,87.128ZM69.678,72.982c-.154,7.635-.175,8.537,6.828,12.237,7-3.7,6.986-4.6,6.828-12.237-.011-.588-.023-1.218-.035-1.9a14.048,14.048,0,0,1-6.792-3.635,14.051,14.051,0,0,1-6.789,3.635C69.706,71.764,69.695,72.394,69.678,72.982Zm6.376,18.051c-5.177-2.714-8.026-4.454-9.576-6.634H38.243a.958.958,0,0,1-.955-.955V54.212A11.08,11.08,0,1,1,51.764,40.7H74.995a.956.956,0,0,1,.847.518L81.78,52.735a.92.92,0,0,1,.139.5V65.25a17.448,17.448,0,0,0,5.451,1.833.959.959,0,0,1,.8.963c.015,1.311.038,2.537.061,3.661.251,12.07.274,13.272-11.289,19.33a.95.95,0,0,1-.893,0ZM66.679,71.745c-.221,10.844-.247,12.062,9.828,17.379,10.079-5.316,10.052-6.534,9.831-17.379-.019-.9-.038-1.871-.057-2.927a19.087,19.087,0,0,1-9.774-5.258,19.09,19.09,0,0,1-9.774,5.258C66.717,69.874,66.7,70.841,66.679,71.745ZM44.313,39.019a.955.955,0,0,1,1.353,1.349l-3.637,3.637,3.054,3.054a.955.955,0,1,1-1.353,1.349L40,44.68a.954.954,0,0,1,0-1.353Zm-12.3,3.846H33.3a.955.955,0,0,1,0,1.909H32.008a9.181,9.181,0,0,0,8.17,8.166V51.652a.955.955,0,0,1,1.909,0V52.94a9.177,9.177,0,0,0,8.166-8.166H48.965a.955.955,0,1,1,0-1.909h1.288a9.181,9.181,0,0,0-8.166-8.17v1.288a.955.955,0,1,1-1.909,0V34.7A9.181,9.181,0,0,0,32.008,42.865Zm20.134-.258a11.066,11.066,0,0,1-3.854,9.669h5.6l2.653-9.669ZM42.492,80.391a.955.955,0,1,1,0-1.909H58.057a.955.955,0,1,1,0,1.909Zm-.078-13.385h7.605a.953.953,0,0,1,.951.955v7.605a.951.951,0,0,1-.951.951H42.414a.954.954,0,0,1-.955-.951V67.96A.958.958,0,0,1,42.414,67.006Zm6.65,1.909H43.37v5.694h5.694ZM64.993,52.276l-2.653-9.669H58.509l-2.653,9.669Zm-.681-9.669,2.653,9.669H79.4l-4.988-9.669Zm-11.708-9.79a.953.953,0,0,1,1.848.465l-.525,2.095a.955.955,0,0,1-.9.723l-2.308.151a.953.953,0,0,1-.12-1.9l.39-.023A14.166,14.166,0,1,0,32.864,55.987a.951.951,0,1,1-1.1,1.551A16.07,16.07,0,1,1,52.521,33.158Z" transform="translate(879.305 1698.16)" fill="#0e3060"/></g></svg>