<svg xmlns="http://www.w3.org/2000/svg" width="62" height="62" viewBox="0 0 62 62"><g transform="translate(1 1)"><g transform="translate(-1 -1)"><path d="M55.833,1.067H38.267V.033A.976.976,0,0,0,37.233-1H22.663A.976.976,0,0,0,21.63.033V1.067H4.167A5.117,5.117,0,0,0-1,6.233v49.6A5.116,5.116,0,0,0,4.167,61H55.833A5.116,5.116,0,0,0,61,55.833V6.233A5.116,5.116,0,0,0,55.833,1.067Zm-32.033,0H36.2V14.293L30.723,9.54A1.917,1.917,0,0,0,30,9.333a1.914,1.914,0,0,0-.723.207L23.8,14.293V1.067ZM58.933,55.833a3.045,3.045,0,0,1-3.1,3.1H4.167a3.045,3.045,0,0,1-3.1-3.1V6.233a3.045,3.045,0,0,1,3.1-3.1H21.63V14.707a1.81,1.81,0,0,0,1.137,1.757,1.9,1.9,0,0,0,2.067-.31L30,11.71l5.167,4.443a2.937,2.937,0,0,0,1.24.413c.207,0,.517,0,.62-.1a1.91,1.91,0,0,0,1.137-1.757V3.133h17.67a3.045,3.045,0,0,1,3.1,3.1v49.6Z" transform="translate(1 1)" fill="#723a93"/><path d="M423.333,459.8h-5.167a1.033,1.033,0,1,0,0,2.067h5.167a1.033,1.033,0,1,0,0-2.067Z" transform="translate(-366.5 -404)" fill="#723a93"/><path d="M408.334,425.667H401.1a1.033,1.033,0,1,0,0,2.067h7.233a1.033,1.033,0,1,0,0-2.067Z" transform="translate(-351.5 -374)" fill="#723a93"/><path d="M149.777,161.443l-4.664,4.664a23.367,23.367,0,0,1-9.6-3.734,1.119,1.119,0,0,0-1.137,0,24.9,24.9,0,0,1-10.953,3.927,1.1,1.1,0,0,0-.93,1.033v9.4a20.613,20.613,0,0,0,2.374,9.612l-6.094,6.094a1,1,0,0,0,0,1.447,1,1,0,0,0,1.447,0l5.731-5.731a18.573,18.573,0,0,0,3.982,4.285,19.346,19.346,0,0,0,4.65,2.687.781.781,0,0,0,.413.1h.31a17.557,17.557,0,0,0,4.65-2.687,19.959,19.959,0,0,0,7.44-15.707v-9.507a.955.955,0,0,0-.134-.486l3.957-3.957a1.023,1.023,0,1,0-1.447-1.447Zm-25.11,15.293V168.16A27.931,27.931,0,0,0,135,164.44a27.457,27.457,0,0,0,8.422,3.358l-13.815,13.815a15.12,15.12,0,0,1-.807-4.773v-5.27a34.922,34.922,0,0,0,3.513-1.137,1.046,1.046,0,1,0-.723-1.963,30.031,30.031,0,0,1-4.03,1.24,1.006,1.006,0,0,0-.827,1.033v6.1A16.725,16.725,0,0,0,128,183.223l-1.527,1.527A18.625,18.625,0,0,1,124.667,176.737Zm20.667,0a17.807,17.807,0,0,1-6.613,14.053,17.363,17.363,0,0,1-3.72,2.17,15.185,15.185,0,0,1-3.72-2.17,16.4,16.4,0,0,1-3.779-4.178l17.832-17.832Z" transform="translate(-104.001 -141.5)" fill="#723a93"/></g></g></svg>