<svg xmlns="http://www.w3.org/2000/svg" width="85" height="84.722" viewBox="0 0 85 84.722"><path d="M80.368,13.541H56.978a1.333,1.333,0,0,0,0,2.667H80.368a2.968,2.968,0,0,1,2.965,2.965v47.51h-4.1V37.891A1.333,1.333,0,0,0,77.9,36.558H71.135A1.333,1.333,0,0,0,69.8,37.891V66.682h-2.38V48.795a1.333,1.333,0,0,0-1.333-1.333H59.325a1.333,1.333,0,0,0-1.333,1.333V66.682h-2.38v-23.5a1.333,1.333,0,0,0-1.333-1.333H47.516a1.333,1.333,0,0,0-1.333,1.333v23.5H43.8V56.235A1.333,1.333,0,0,0,42.469,54.9H35.706a1.333,1.333,0,0,0-1.333,1.333V66.682H3.667V19.172a2.968,2.968,0,0,1,2.965-2.965H17.4a1.333,1.333,0,0,0,0-2.667H6.632A5.638,5.638,0,0,0,1,19.172V70.914a5.638,5.638,0,0,0,5.632,5.631H25.666l-4.08,7a1.972,1.972,0,0,0-.012,2,2.016,2.016,0,0,0,1.741,1.013h40.37a2.016,2.016,0,0,0,1.741-1.013,1.973,1.973,0,0,0-.012-2l-4.08-7H80.369A5.638,5.638,0,0,0,86,70.914V19.172a5.638,5.638,0,0,0-5.632-5.632Zm-7.9,25.684h4.1V66.682h-4.1Zm-11.81,10.9h4.1V66.682h-4.1Zm-11.81-5.614h4.1V66.682h-4.1ZM37.039,57.569h4.1v9.113h-4.1ZM62.527,83.889H24.473l4.279-7.344h29.5Zm17.841-10.01H6.632a2.968,2.968,0,0,1-2.965-2.965V69.349H83.333v1.565A2.968,2.968,0,0,1,80.368,73.879ZM62.575,38.986l9.034-8.341-1.626-.077a1.333,1.333,0,0,1,.126-2.664l4.978.234a1.333,1.333,0,0,1,1.249,1.57l-.891,4.9a1.333,1.333,0,1,1-2.623-.476l.214-1.179-9.424,8.7a1.333,1.333,0,0,1-1.647.128L51.193,34.568,40.145,48.933a1.333,1.333,0,1,1-2.114-1.626l11.81-15.354a1.333,1.333,0,0,1,1.8-.295ZM30.568,61.008a1.333,1.333,0,0,1-1.333,1.333H10.386a1.333,1.333,0,1,1,0-2.667H29.234A1.333,1.333,0,0,1,30.568,61.008Zm0-5.5a1.333,1.333,0,0,1-1.333,1.333H10.386a1.333,1.333,0,0,1,0-2.667H29.234A1.333,1.333,0,0,1,30.568,55.512Zm0-5.5a1.333,1.333,0,0,1-1.333,1.333H10.386a1.333,1.333,0,1,1,0-2.667H29.234A1.333,1.333,0,0,1,30.568,50.015ZM18.2,17.489,12.469,20.8a3.717,3.717,0,0,0-1.784,3.936,6.28,6.28,0,0,0,1.889,11.278,6.357,6.357,0,0,0,1.646.218,6.214,6.214,0,0,0,2.736-.635,3.73,3.73,0,0,0,2.45.918,3.687,3.687,0,0,0,1.387-.271l4.444,7.7a2.482,2.482,0,0,0,3.388.907l2.065-1.192a2.483,2.483,0,0,0,.907-3.388L27.2,32.66l13.974-3.084a4.078,4.078,0,0,0,2.744,1.063,4.058,4.058,0,0,0,3.509-6.088l-2.772-4.8a6.607,6.607,0,0,0-6.4-11.087l-2.771-4.8a4.061,4.061,0,0,0-7.48,2.9ZM39.584,27.2l-12.418,2.74L20.69,18.72l8.582-9.384Zm-26.321,6.24a3.619,3.619,0,0,1-1.4-6.257l3.561,6.168a3.6,3.6,0,0,1-2.165.089Zm5.231-.112-5.075-8.79a1.046,1.046,0,0,1,.382-1.428l4.757-2.746,6.12,10.6L20.633,33.3h0l-.709.41A1.046,1.046,0,0,1,18.494,33.326Zm8.958,9.12-4.333-7.5,1.742-1.006,4.333,7.5ZM40.034,11.085a3.94,3.94,0,0,1,3.215,6.224L39.667,11.1c.122-.011.244-.019.367-.019Zm-8.759-6.4a1.393,1.393,0,0,1,1.9.51L45.122,25.885a1.393,1.393,0,0,1-2.412,1.393L30.765,6.59a1.394,1.394,0,0,1,.51-1.9ZM47.706,9.061l3.023-1.745a1.333,1.333,0,1,1,1.333,2.309L49.04,11.371a1.333,1.333,0,0,1-1.333-2.309Zm-3.9-2.922,1.745-3.023A1.333,1.333,0,0,1,47.863,4.45L46.118,7.472a1.333,1.333,0,0,1-2.309-1.333Zm5.813,7.4h3.49a1.333,1.333,0,1,1,0,2.667h-3.49a1.333,1.333,0,1,1,0-2.667Z" transform="translate(-1 -1.834)" fill="#723a93"/></svg>