<svg xmlns="http://www.w3.org/2000/svg" xmlns:xlink="http://www.w3.org/1999/xlink" width="190" height="62" viewBox="0 0 190 62"><defs><clipPath id="a"><rect width="46.902" height="23.204" transform="translate(0 0)" fill="none" stroke="#9167f1" stroke-width="1"/></clipPath><filter id="b" x="9.5" y="0" width="175.921" height="62" filterUnits="userSpaceOnUse"><feOffset dy="2" input="SourceAlpha"/><feGaussianBlur stdDeviation="1.5" result="c"/><feFlood flood-color="#cbcbcb" flood-opacity="0.161"/><feComposite operator="in" in2="c"/><feComposite in="SourceGraphic"/></filter></defs><g transform="translate(-207.05 -2047.5)"><g transform="translate(397.051 2052.882) rotate(90)" clip-path="url(#a)"><path d="M89.11,16.118,84.157,10.01a4.254,4.254,0,0,0-6.955,0c-3.6,4.445-9.245,4.444-12.846,0a4.255,4.255,0,0,0-6.957,0c-3.6,4.444-9.246,4.443-12.846,0a4.254,4.254,0,0,0-6.956,0c-3.6,4.443-9.244,4.443-12.845,0a4.254,4.254,0,0,0-6.956,0c-3.6,4.44-9.243,4.443-12.845,0L0,3.908,2.944,0,7.9,6.106a4.254,4.254,0,0,0,6.955,0c3.6-4.443,9.245-4.443,12.845,0a4.255,4.255,0,0,0,6.956,0c3.6-4.443,9.244-4.443,12.845,0a4.255,4.255,0,0,0,6.957,0c3.6-4.444,9.245-4.444,12.845,0a4.254,4.254,0,0,0,6.957,0c3.6-4.444,9.246-4.444,12.846,0l4.954,6.107Z" transform="translate(-17.158 -1.773)" fill="none" stroke="#9167f1" stroke-width="1"/><path d="M89.11,16.118,84.157,10.01a4.254,4.254,0,0,0-6.955,0c-3.6,4.445-9.245,4.444-12.846,0a4.255,4.255,0,0,0-6.957,0c-3.6,4.444-9.246,4.443-12.846,0a4.254,4.254,0,0,0-6.956,0c-3.6,4.443-9.244,4.443-12.845,0a4.254,4.254,0,0,0-6.956,0c-3.6,4.44-9.243,4.443-12.845,0L0,3.908,2.944,0,7.9,6.106a4.254,4.254,0,0,0,6.955,0c3.6-4.443,9.245-4.443,12.845,0a4.255,4.255,0,0,0,6.956,0c3.6-4.443,9.244-4.443,12.845,0a4.255,4.255,0,0,0,6.957,0c3.6-4.444,9.245-4.444,12.845,0a4.254,4.254,0,0,0,6.957,0c3.6-4.444,9.246-4.444,12.846,0l4.954,6.107Z" transform="translate(-17.158 8.86)" fill="none" stroke="#9167f1" stroke-width="1"/><path d="M64.132,11.6,60.568,7.2a3.062,3.062,0,0,0-5.005,0,5.655,5.655,0,0,1-9.246,0,3.062,3.062,0,0,0-5.007,0,5.655,5.655,0,0,1-9.246,0,3.062,3.062,0,0,0-5.006,0,5.655,5.655,0,0,1-9.245,0,3.062,3.062,0,0,0-5.006,0,5.655,5.655,0,0,1-9.244,0L0,2.812,2.119,0,5.682,4.395a3.061,3.061,0,0,0,5.005,0,5.653,5.653,0,0,1,9.244,0,3.062,3.062,0,0,0,5.006,0,5.654,5.654,0,0,1,9.244,0,3.062,3.062,0,0,0,5.007,0,5.654,5.654,0,0,1,9.245,0,3.062,3.062,0,0,0,5.007,0,5.654,5.654,0,0,1,9.245,0l3.565,4.4Z" transform="translate(-4.257 28.941)" fill="none" stroke="#9167f1" stroke-width="1"/></g><g transform="matrix(1, 0, 0, 1, 207.05, 2047.5)" filter="url(#b)"><rect width="166.921" height="53" rx="26.5" transform="translate(14 2.5)" fill="#f6edfb"/></g><rect width="35" height="35" transform="translate(207.051 2058.833)" fill="#0e3060"/><path d="M24.255,8.487h-.036A8.833,8.833,0,1,0,15,17.87v.009H33.99v-.047a8.834,8.834,0,1,0-9.735-9.345" transform="translate(200.48 2076.288)" fill="#9167f1"/><path d="M24.255,8.487h-.036A8.833,8.833,0,1,0,15,17.87v.009H33.99v-.047a8.834,8.834,0,1,0-9.735-9.345" transform="translate(200.48 2058.621)" fill="#9167f1"/></g></svg>