<svg xmlns="http://www.w3.org/2000/svg" width="86.089" height="86.086" viewBox="0 0 86.089 86.086"><g transform="translate(-249.999 -250.069)"><path d="M697.377,2109.37H674.511a2.693,2.693,0,0,0-2.69,2.69,5.113,5.113,0,0,1-1.508,3.641l-3.872,3.872-3.872-3.872a5.116,5.116,0,0,1-1.509-3.641,2.693,2.693,0,0,0-2.69-2.69H635.5a2.693,2.693,0,0,0-2.69,2.69,7.789,7.789,0,0,0,2.3,5.544l4.429,4.429v25a2.693,2.693,0,0,0,2.69,2.69h48.423a2.693,2.693,0,0,0,2.69-2.69v-25l4.429-4.429a7.786,7.786,0,0,0,2.3-5.543A2.693,2.693,0,0,0,697.377,2109.37Zm-61.874,2.69H658.37a7.789,7.789,0,0,0,2.3,5.544l2.527,2.527H641.44l-4.429-4.429A5.116,5.116,0,0,1,635.5,2112.06Zm6.725,10.761H665.1v24.212H642.229Zm25.557,24.212v-24.212h22.867v24.212Zm28.084-31.331-4.429,4.429H669.687l2.527-2.528a7.786,7.786,0,0,0,2.3-5.543h22.867A5.113,5.113,0,0,1,695.869,2115.7Z" transform="translate(-373.398 -1813.568)" fill="#522969"/><path d="M2553.529,3203.08h-5.38a1.345,1.345,0,0,0,0,2.69h5.38a1.345,1.345,0,0,0,0-2.69Z" transform="translate(-2240.311 -2880.376)" fill="#522969"/><path d="M2446.848,3421.82h-8.071a1.345,1.345,0,0,0,0,2.69h8.071a1.345,1.345,0,0,0,0-2.69Z" transform="translate(-2133.629 -3093.736)" fill="#522969"/><path d="M1583.985,288.172a10.761,10.761,0,1,0-10.761,10.761A10.773,10.773,0,0,0,1583.985,288.172Zm-10.761,8.071a8.071,8.071,0,1,1,8.071-8.071A8.08,8.08,0,0,1,1573.225,296.242Z" transform="translate(-1280.183 -26.669)" fill="#522969"/><path d="M266.085,272.585a3.064,3.064,0,0,0,4.446-3.23l-.76-4.432,3.59-3.5a2.809,2.809,0,0,0-1.557-4.792l-4.961-.72-2.024-4.1a2.99,2.99,0,0,0-5.428,0l-2.024,4.1-4.961.72a2.809,2.809,0,0,0-1.557,4.792l3.59,3.5-.76,4.432a3.064,3.064,0,0,0,4.446,3.23l3.98-2.092Zm-9.213-2.381a.374.374,0,0,1-.543-.394l.88-5.129a1.346,1.346,0,0,0-.387-1.19l-4.1-3.994a.119.119,0,0,1,.067-.2l5.661-.823a1.348,1.348,0,0,0,1.013-.736L261.8,253c.16-.324.443-.324.6,0l2.337,4.735a1.345,1.345,0,0,0,1.013.736l5.661.823a.119.119,0,0,1,.067.2l-4.1,3.994a1.342,1.342,0,0,0-.387,1.19l.88,5.129a.374.374,0,0,1-.543.394l-4.606-2.422a1.344,1.344,0,0,0-1.252,0Z" transform="translate(0 -0.005)" fill="#522969"/><path d="M2673.131,252.121a4.325,4.325,0,0,0-7.359,0l-9.186,14.874a3.894,3.894,0,0,0,3.313,5.941H2679a3.894,3.894,0,0,0,3.313-5.941Zm6.925,17.507a1.182,1.182,0,0,1-1.052.617h-19.1a1.2,1.2,0,0,1-1.025-1.837l9.187-14.873a1.634,1.634,0,0,1,2.78,0l9.187,14.873A1.181,1.181,0,0,1,2680.056,269.628Z" transform="translate(-2346.818)" fill="#522969"/><path d="M1786.6,1371.12a1.346,1.346,0,0,0-1.345,1.345v10.2l-1.739-1.739a1.345,1.345,0,1,0-1.9,1.9l4.035,4.035a1.344,1.344,0,0,0,1.9,0l4.035-4.035a1.345,1.345,0,0,0-1.9-1.9l-1.739,1.739v-10.2A1.346,1.346,0,0,0,1786.6,1371.12Z" transform="translate(-1493.554 -1093.477)" fill="#522969"/><path d="M938.3,1382.555a1.346,1.346,0,0,0,1.345,1.345h5.38a1.346,1.346,0,0,0,1.345-1.345v-5.38a1.345,1.345,0,1,0-2.69,0v2.133l-7.792-7.792a1.345,1.345,0,0,0-1.9,1.9l7.791,7.792h-2.133A1.345,1.345,0,0,0,938.3,1382.555Z" transform="translate(-666.775 -1093.478)" fill="#522969"/><path d="M2548.15,1375.835a1.345,1.345,0,0,0-1.345,1.345v5.38a1.346,1.346,0,0,0,1.345,1.345h5.38a1.345,1.345,0,1,0,0-2.69H2551.4l7.792-7.792a1.345,1.345,0,0,0-1.9-1.9l-7.792,7.791v-2.133A1.346,1.346,0,0,0,2548.15,1375.835Z" transform="translate(-2240.312 -1093.484)" fill="#522969"/></g></svg>