<svg xmlns="http://www.w3.org/2000/svg" width="121.542" height="84.473" viewBox="0 0 121.542 84.473"><g transform="translate(0 -260)"><path d="M46.439,344.473h-8.4a4.12,4.12,0,0,1-4.131-4.06v-7.621a31.389,31.389,0,0,1-7.336-3.063l-5.413,5.342a4,4,0,0,1-5.769,0L9.4,329.159a4.085,4.085,0,0,1,0-5.84l5.413-5.413a30.17,30.17,0,0,1-3.063-7.336H4.131A4.12,4.12,0,0,1,0,306.51v-8.476A4.134,4.134,0,0,1,4.131,293.9h7.621a31.388,31.388,0,0,1,3.063-7.336L9.4,281.225a4.148,4.148,0,0,1,0-5.84l5.983-5.983a4.216,4.216,0,0,1,5.84,0l5.342,5.413a31.387,31.387,0,0,1,7.336-3.063v-7.621A4.134,4.134,0,0,1,38.034,260H46.51a4.12,4.12,0,0,1,4.06,4.131v7.621a30.169,30.169,0,0,1,7.336,3.063l5.413-5.413a4.216,4.216,0,0,1,5.84,0l5.912,5.983a4.085,4.085,0,0,1,0,5.84l-5.342,5.342a34.755,34.755,0,0,1,3.063,7.336h7.621c4.416,0,5.271,6.481,2.635,6.481-2.493,0-.356-3.632-2.635-3.632-14.957,0-6.766,1.567-13.675-9.615a1.411,1.411,0,0,1,.214-1.781l6.125-6.2a1.247,1.247,0,0,0,0-1.781L67.094,271.4a1.4,1.4,0,0,0-1.781,0c-10.755,10.755-3.7,5.84-16.453,2.849a1.438,1.438,0,0,1-1.14-1.353v-8.761a1.264,1.264,0,0,0-1.211-1.282H38.034a1.277,1.277,0,0,0-1.282,1.282c0,14.957,1.567,6.766-9.615,13.675a1.411,1.411,0,0,1-1.781-.214l-6.2-6.2a1.247,1.247,0,0,0-1.781,0L11.4,277.379a1.247,1.247,0,0,0,0,1.781c10.826,10.826,5.84,3.7,2.849,16.524a1.372,1.372,0,0,1-1.353,1.068H4.131a1.277,1.277,0,0,0-1.282,1.282v8.4a1.277,1.277,0,0,0,1.282,1.282c14.957,0,6.766-1.5,13.675,9.687a1.511,1.511,0,0,1-.214,1.781l-6.2,6.125a1.246,1.246,0,0,0,0,1.781l5.983,5.983a1.247,1.247,0,0,0,1.781,0c10.755-10.755,3.7-5.769,16.524-2.778a1.373,1.373,0,0,1,1.068,1.353v8.689a1.277,1.277,0,0,0,1.282,1.282h8.4a1.277,1.277,0,0,0,1.282-1.282c0-14.886-1.5-6.7,9.687-13.6a1.411,1.411,0,0,1,1.781.214l6.125,6.125a1.247,1.247,0,0,0,1.781,0l5.983-5.983a1.247,1.247,0,0,0,0-1.781c-10.755-10.755-5.769-3.7-2.849-16.453a1.588,1.588,0,0,1,1.424-1.14h8.689c2.35,0,.214-3.561,2.707-3.561,2.635,0,1.781,6.41-2.707,6.41H72.72a29.972,29.972,0,0,1-2.991,7.336l5.342,5.413a4,4,0,0,1,0,5.769l-5.983,5.983a4,4,0,0,1-5.769,0l-5.413-5.342a33.266,33.266,0,0,1-7.336,3.063v7.55A4.089,4.089,0,0,1,46.439,344.473Z" fill="#522969" fill-rule="evenodd"/><path d="M278.145,563.219a24.11,24.11,0,1,1,24.145-24.145A24.166,24.166,0,0,1,278.145,563.219Zm0-45.37a21.261,21.261,0,1,0,21.3,21.225A21.293,21.293,0,0,0,278.145,517.849Z" transform="translate(-235.909 -236.838)" fill="#522969" fill-rule="evenodd"/><path d="M450.9,721.866A10.933,10.933,0,1,1,461.866,710.9,10.913,10.913,0,0,1,450.9,721.866Zm0-19.017a8.084,8.084,0,1,0,8.12,8.048A8.04,8.04,0,0,0,450.9,702.849Z" transform="translate(-408.661 -408.661)" fill="#522969" fill-rule="evenodd"/><path d="M574.424,975.3A1.429,1.429,0,0,1,573,973.875v-4.986a1.425,1.425,0,0,1,2.849,0v4.986A1.429,1.429,0,0,1,574.424,975.3Z" transform="translate(-532.188 -657.108)" fill="#522969" fill-rule="evenodd"/><path d="M713.178,835.849h-4.986a1.425,1.425,0,1,1,0-2.849h4.986A1.425,1.425,0,0,1,713.178,835.849Z" transform="translate(-656.412 -532.188)" fill="#522969" fill-rule="evenodd"/><path d="M574.424,637.6A1.429,1.429,0,0,1,573,636.178v-4.986a1.425,1.425,0,1,1,2.849,0v4.986A1.429,1.429,0,0,1,574.424,637.6Z" transform="translate(-532.188 -343.415)" fill="#522969" fill-rule="evenodd"/><path d="M375.946,835.849h-5.057a1.425,1.425,0,0,1,0-2.849h5.057A1.425,1.425,0,0,1,375.946,835.849Z" transform="translate(-343.182 -532.188)" fill="#522969" fill-rule="evenodd"/><path d="M1140.809,672.128H1114.1a1.293,1.293,0,0,1-1-.427l-13.675-13.6a1.462,1.462,0,0,1,0-2.066l13.675-13.6a1.293,1.293,0,0,1,1-.427h26.709a1.439,1.439,0,0,1,1.068,2.422l-11.752,12.607,11.752,12.678A1.439,1.439,0,0,1,1140.809,672.128Zm-26.139-2.849H1137.6l-10.47-11.253a1.423,1.423,0,0,1,0-1.923l10.47-11.254h-22.934l-12.179,12.179Z" transform="translate(-1020.724 -354.792)" fill="#522969" fill-rule="evenodd"/><path d="M640.131,835.849H574.889a1.425,1.425,0,0,1,0-2.849h65.242A1.425,1.425,0,0,1,640.131,835.849Z" transform="translate(-532.653 -532.188)" fill="#522969" fill-rule="evenodd"/><path d="M1320.415,672.171a1.487,1.487,0,0,1-1.14-.57l-9.758-13.675a1.5,1.5,0,0,1,0-1.709l10.541-13.6c1.14-1.5,3.419.285,2.279,1.709l-9.9,12.82,9.117,12.749A1.424,1.424,0,0,1,1320.415,672.171Z" transform="translate(-1215.999 -354.835)" fill="#522969" fill-rule="evenodd"/></g></svg>